<svg width="252" height="69" viewBox="0 0 252 69" fill="none" xmlns="http://www.w3.org/2000/svg">
<path d="M25.5 19.5C11.5 27.5 3.33333 46.1667 1 54.5H8C10.8 38.9 22.8333 29.3333 28.5 26.5C28.9 32.1 24.6667 47.5 22.5 54.5H30C30.8 41.7 43.6667 30.5 50 26.5L44.5 54.5H51.5L58 19.5H46.5L34.5 30L36.5 19.5H25.5Z" fill="#FF0000"/>
<path d="M112 19.5C100 24.3 90.6667 44.8333 87.5 54.5H94C99.2 38.1 109.833 29 114.5 26.5C114.1 34.5 110.333 48.5 108.5 54.5H116.5L123.5 19.5H112Z" fill="#FF0000"/>
<path d="M215 48L222 12.5H229L227.5 25.5C237.5 24.7 242 16.5 243 12.5H250.5C247.7 24.1 242.333 28.3333 240 29C246.4 33.4 245.333 43.5 244 48H237C241 37.6 237 32.3333 234.5 31H224.5L222 48H215Z" fill="#FF0000"/>
<path fill-rule="evenodd" clip-rule="evenodd" d="M77.5 54.5H64C61.6667 53.8333 57 51.6 57 48C57 44.4 60 30.8333 61.5 24.5C61.6667 22.8333 63.3 19.5 68.5 19.5H82C84.5 19.6667 89.3 21.6 88.5 28C87.7 34.4 85.5 44.6667 84.5 49C84.4167 50.8333 82.9 54.5 77.5 54.5ZM64 48L68.5 26.5H82L77.5 48H64Z" fill="#FF0000"/>
<path fill-rule="evenodd" clip-rule="evenodd" d="M142 54.5H128.5C126.167 53.8333 121.5 51.6 121.5 48C121.5 44.4 124.5 30.8333 126 24.5C126.167 22.8333 127.8 19.5 133 19.5H146.5C149 19.6667 153.8 21.6 153 28C152.2 34.4 150 44.6667 149 49C148.917 50.8333 147.4 54.5 142 54.5ZM128.5 48L133 26.5H146.5L142 48H128.5Z" fill="#FF0000"/>
<path fill-rule="evenodd" clip-rule="evenodd" d="M205 47H191.5C189.167 46.3333 184.5 44.1 184.5 40.5C184.5 36.9 187.5 23.3333 189 17C189.167 15.3333 190.8 12 196 12H209.5C212 12.1667 216.8 14.1 216 20.5C215.2 26.9 213 37.1667 212 41.5C211.917 43.3333 210.4 47 205 47ZM191.5 40.5L196 19H209.5L205 40.5H191.5Z" fill="#FF0000"/>
<path fill-rule="evenodd" clip-rule="evenodd" d="M149.5 68L160 15.5H149.5L151 8.5H167.5H178.5V15.5H167.5L161.5 44H166.5L163.667 61L162.5 68H149.5Z" fill="#FF0000"/>
<path d="M178.5 8.5V15.5H181.5L170.5 37.5H176.5L163.667 61H176.5L186.5 8.5H198.5V1H167.5V8.5H178.5Z" fill="#FF0000"/>
<path d="M215 48L222 12.5H229L227.5 25.5C237.5 24.7 242 16.5 243 12.5H250.5C247.7 24.1 242.334 28.3333 240 29C246.4 33.4 245.334 43.5 244 48H237C241 37.6 237 32.3333 234.5 31H224.5L222 48H215Z" fill="#0000FF"/>
<path fill-rule="evenodd" clip-rule="evenodd" d="M205 47H191.5C189.167 46.3333 184.5 44.1 184.5 40.5C184.5 36.9 187.5 23.3333 189 17C189.167 15.3333 190.8 12 196 12H209.5C212 12.1667 216.8 14.1 216 20.5C215.2 26.9 213 37.1667 212 41.5C211.917 43.3333 210.4 47 205 47ZM191.5 40.5L196 19H209.5L205 40.5H191.5Z" fill="#0000FF"/>
<path d="M178.5 8.5V15.5H181.5L170.5 37.5H176.5L163.667 61H176.5L186.5 8.5H198.5V1H167.5L166 8.5H178.5Z" fill="#0000FF"/>
</svg>
