<svg width="66" height="82" viewBox="0 0 66 82" fill="none" xmlns="http://www.w3.org/2000/svg">
<path d="M33.1018 81C27.3048 80.9989 21.6162 79.4278 16.6401 76.4535C11.664 73.4792 7.58596 69.2128 4.83896 64.1071C2.09196 59.0015 0.778515 53.2471 1.03806 47.4549C1.2976 41.6628 3.12044 36.049 6.31307 31.2096C6.914 30.2922 10.0451 25.9585 10.8042 24.883L13.6507 21.1186L19.3437 26.8758C19.5619 27.0899 19.8271 27.2501 20.1181 27.3434C20.4091 27.4368 20.718 27.4608 21.02 27.4136C21.4444 27.327 21.8264 27.0978 22.1025 26.764C22.3787 26.4303 22.5324 26.0121 22.5381 25.5789C22.4413 21.6305 23.2529 17.7127 24.9102 14.1277C27.4049 9.24575 31.3943 5.28894 36.2962 2.83472L40.4078 1L41.5464 5.33373C42.2975 7.66304 43.2609 9.91846 44.4245 12.0716C47.7232 18.2728 51.805 24.0244 56.5695 29.1851C61.7297 34.4947 64.7867 41.4978 65.1723 48.8924C65.1639 57.3999 61.7834 65.5569 55.7717 71.5755C49.76 77.5941 41.6077 80.9833 33.1018 81ZM13.9354 25.9585L13.6507 26.5911C12.7968 27.7932 9.69724 32.032 9.09631 32.9178C6.60147 36.6878 5.02432 40.99 4.49126 45.4795C3.9582 49.9689 4.48405 54.5209 6.02667 58.7705C7.56929 63.0201 10.0858 66.8492 13.3745 69.9509C16.6631 73.0526 20.6326 75.3407 24.9646 76.6317C29.2966 77.9228 33.8708 78.1809 38.3206 77.3855C42.7703 76.59 46.9719 74.763 50.5885 72.051C54.2052 69.339 57.1364 65.8173 59.1471 61.7682C61.1579 57.7191 62.1924 53.2552 62.1676 48.7343C61.7875 42.1231 59.0231 35.8742 54.3872 31.1463C49.4275 25.7858 45.1758 19.8111 41.7361 13.3685C40.422 11.0316 39.3617 8.56067 38.5733 5.99802L38.352 5.23883L37.6561 5.55516C33.3659 7.74441 29.8866 11.2465 27.725 15.5512C26.295 18.6846 25.6025 22.1043 25.7009 25.5473C25.7081 26.5473 25.4171 27.5268 24.865 28.3606C24.3129 29.1944 23.5249 29.8446 22.6015 30.2283C21.6781 30.612 20.6614 30.7116 19.6811 30.5145C18.7008 30.3174 17.8015 29.8325 17.0981 29.1218L13.9354 25.9585Z" fill="#0063FF"/>
<path d="M36.676 43.2303L25.5747 59.5214H29.4649L40.5663 43.2303H36.676Z" fill="#0063FF"/>
<path d="M40.5978 50.5059C39.8508 50.4757 39.1059 50.6055 38.4131 50.8865C37.7202 51.1676 37.0954 51.5934 36.5803 52.1354C36.0653 52.6775 35.672 53.3233 35.4267 54.0297C35.1813 54.7361 35.0897 55.4868 35.1579 56.2314C35.0892 56.9747 35.1807 57.7241 35.4263 58.429C35.6719 59.1338 36.0657 59.7778 36.5813 60.3175C37.0969 60.8572 37.7223 61.28 38.4152 61.5574C39.108 61.8347 39.8523 61.9602 40.5978 61.9254C41.3446 61.9596 42.09 61.834 42.7843 61.5569C43.4786 61.2798 44.1057 60.8576 44.6237 60.3186C45.1417 59.7795 45.5387 59.136 45.788 58.4312C46.0373 57.7263 46.1333 56.9764 46.0694 56.2314C46.1328 55.4851 46.0368 54.7339 45.7877 54.0275C45.5386 53.3211 45.1422 52.6758 44.6248 52.1344C44.1074 51.5929 43.4807 51.1677 42.7864 50.8869C42.0922 50.6062 41.3461 50.4763 40.5978 50.5059ZM40.5978 58.7621C39.9653 58.7621 39.3327 58.1927 39.3327 56.2314C39.3327 54.2702 39.9653 53.6692 40.5978 53.6692C41.2304 53.6692 41.8946 54.2386 41.8946 56.2314C41.8946 58.2243 41.262 58.7621 40.5978 58.7621Z" fill="#0063FF"/>
<path d="M31.0144 46.5515C31.0825 45.8068 30.9909 45.0562 30.7456 44.3498C30.5003 43.6434 30.1069 42.9976 29.5919 42.4555C29.0769 41.9134 28.452 41.4876 27.7592 41.2066C27.0663 40.9256 26.3215 40.7958 25.5744 40.8259C24.8274 40.7958 24.0825 40.9256 23.3896 41.2066C22.6968 41.4876 22.0719 41.9134 21.5569 42.4555C21.0419 42.9976 20.6485 43.6434 20.4032 44.3498C20.1579 45.0562 20.0663 45.8068 20.1344 46.5515C20.0658 47.2948 20.1573 48.0441 20.4029 48.749C20.6484 49.4539 21.0423 50.0979 21.5579 50.6376C22.0735 51.1773 22.6988 51.6 23.3917 51.8774C24.0846 52.1548 24.8289 52.2803 25.5744 52.2455C26.3199 52.2803 27.0642 52.1548 27.7571 51.8774C28.45 51.6 29.0753 51.1773 29.5909 50.6376C30.1065 50.0979 30.5004 49.4539 30.7459 48.749C30.9915 48.0441 31.083 47.2948 31.0144 46.5515ZM24.2777 46.5515C24.2777 44.5903 24.9419 43.9892 25.5744 43.9892C26.207 43.9892 26.8711 44.5903 26.8711 46.5515C26.8711 48.5128 26.207 49.0822 25.5744 49.0822C24.9419 49.0822 24.2777 48.4495 24.2777 46.5515Z" fill="#0063FF"/>
</svg>
