<svg width="82" height="82" viewBox="0 0 82 82" fill="none" xmlns="http://www.w3.org/2000/svg">
<path d="M70.4667 59.9335H19.6C18.9 59.9335 19.1 60.5001 19.1 61.2001C19.1 61.9001 18.7333 62.4668 19.4333 62.4668H70.4667C72.5884 62.4668 74.6232 63.3097 76.1235 64.81C77.6238 66.3102 78.4667 68.3451 78.4667 70.4668C78.4667 72.5885 77.6238 74.6234 76.1235 76.1237C74.6232 77.624 72.5884 78.4668 70.4667 78.4668H11.5333C9.4116 78.4668 7.37677 77.624 5.87648 76.1237C4.37619 74.6234 3.53333 72.5885 3.53333 70.4668C3.53333 68.3451 4.37619 66.3102 5.87648 64.81C7.37677 63.3097 9.4116 62.4668 11.5333 62.4668H20.4333C21.1333 62.4668 20.8667 61.9335 20.8667 61.2335C20.8667 60.5335 21.5667 59.9335 20.8667 59.9335H11.5333C8.73972 59.9335 6.06052 61.0432 4.08514 63.0186C2.10976 64.994 1 67.6732 1 70.4668C1 73.2604 2.10976 75.9396 4.08514 77.915C6.06052 79.8904 8.73972 81.0001 11.5333 81.0001H70.4667C73.2603 81.0001 75.9395 79.8904 77.9149 77.915C79.8902 75.9396 81 73.2604 81 70.4668C81 67.6732 79.8902 64.994 77.9149 63.0186C75.9395 61.0432 73.2603 59.9335 70.4667 59.9335Z" fill="#0063FF"/>
<path d="M46.4665 70.4668C46.4665 69.3856 46.1459 68.3287 45.5452 67.4297C44.9446 66.5307 44.0908 65.83 43.0919 65.4162C42.093 65.0025 40.9938 64.8942 39.9334 65.1052C38.8729 65.3161 37.8989 65.8368 37.1344 66.6013C36.3698 67.3658 35.8492 68.3399 35.6382 69.4003C35.4273 70.4607 35.5356 71.5599 35.9493 72.5588C36.3631 73.5577 37.0638 74.4115 37.9628 75.0122C38.8617 75.6128 39.9187 75.9335 40.9999 75.9335C42.4497 75.9335 43.8402 75.3575 44.8654 74.3323C45.8906 73.3071 46.4665 71.9166 46.4665 70.4668ZM38.0665 70.4668C38.0731 69.8881 38.2507 69.3243 38.577 68.8463C38.9033 68.3683 39.3637 67.9975 39.9002 67.7806C40.4368 67.5637 41.0255 67.5104 41.5923 67.6273C42.1591 67.7442 42.6786 68.0262 43.0855 68.4377C43.4925 68.8492 43.7685 69.3719 43.879 69.94C43.9896 70.5081 43.9295 71.0962 43.7066 71.6302C43.4836 72.1643 43.1077 72.6205 42.626 72.9413C42.1444 73.2622 41.5786 73.4334 40.9999 73.4335C40.6106 73.438 40.2243 73.3642 39.8642 73.2163C39.504 73.0684 39.1773 72.8495 38.9036 72.5727C38.6299 72.2958 38.4147 71.9667 38.2709 71.6049C38.1271 71.2431 38.0576 70.856 38.0665 70.4668Z" fill="#0063FF"/>
<path d="M75.9338 70.4668C75.9338 69.3856 75.6132 68.3287 75.0125 67.4297C74.4118 66.5307 73.5581 65.83 72.5592 65.4162C71.5603 65.0025 70.4611 64.8942 69.4007 65.1052C68.3402 65.3161 67.3662 65.8368 66.6016 66.6013C65.8371 67.3658 65.3165 68.3399 65.1055 69.4003C64.8946 70.4607 65.0029 71.5599 65.4166 72.5588C65.8304 73.5577 66.5311 74.4115 67.43 75.0122C68.329 75.6128 69.386 75.9335 70.4672 75.9335C71.917 75.9335 73.3075 75.3575 74.3327 74.3323C75.3579 73.3071 75.9338 71.9166 75.9338 70.4668ZM67.5338 70.4668C67.6114 69.7385 67.9556 69.0646 68.5002 68.5748C69.0448 68.0851 69.7514 67.8141 70.4838 67.8141C71.2163 67.8141 71.9228 68.0851 72.4675 68.5748C73.0121 69.0646 73.3563 69.7385 73.4338 70.4668C73.4779 70.8805 73.4344 71.2989 73.3062 71.6948C73.178 72.0906 72.968 72.455 72.6898 72.7644C72.4116 73.0738 72.0714 73.3212 71.6914 73.4906C71.3113 73.66 70.8999 73.7475 70.4838 73.7475C70.0677 73.7475 69.6563 73.66 69.2763 73.4906C68.8962 73.3212 68.556 73.0738 68.2778 72.7644C67.9996 72.455 67.7896 72.0906 67.6614 71.6948C67.5333 71.2989 67.4898 70.8805 67.5338 70.4668Z" fill="#0063FF"/>
<path d="M6.067 70.4666C6.067 71.5479 6.38761 72.6048 6.9883 73.5038C7.58898 74.4028 8.44276 75.1034 9.44166 75.5172C10.4406 75.9309 11.5397 76.0392 12.6002 75.8283C13.6606 75.6173 14.6347 75.0967 15.3992 74.3322C16.1637 73.5676 16.6844 72.5936 16.8953 71.5331C17.1062 70.4727 16.998 69.3735 16.5842 68.3746C16.1704 67.3757 15.4698 66.522 14.5708 65.9213C13.6718 65.3206 12.6149 65 11.5337 65C10.8145 64.9956 10.1017 65.1339 9.43644 65.4071C8.77119 65.6803 8.16679 66.0828 7.65828 66.5913C7.14977 67.0998 6.74727 67.7042 6.47411 68.3694C6.20095 69.0347 6.06257 69.7475 6.067 70.4666ZM14.467 70.4666C14.5004 71.0608 14.3544 71.6512 14.0478 72.1613C13.7413 72.6713 13.2885 73.0774 12.7482 73.3268C12.2079 73.5762 11.6051 73.6573 11.0181 73.5596C10.4311 73.4619 9.88704 73.19 9.4566 72.7791C9.02615 72.3682 8.72922 71.8374 8.60437 71.2556C8.47952 70.6738 8.53253 70.0678 8.75651 69.5165C8.9805 68.9652 9.3651 68.494 9.86035 68.1641C10.3556 67.8342 10.9386 67.6609 11.5337 67.6666C12.2658 67.6992 12.9592 68.0047 13.4774 68.5229C13.9956 69.0411 14.3011 69.7345 14.3337 70.4666H14.467Z" fill="#0063FF"/>
<path d="M23.7669 43.0333V52.3999H14.3336V43.0333H23.7669ZM25.1002 39.7H13.0669C12.5365 39.7 12.0278 39.9107 11.6527 40.2857C11.2776 40.6608 11.0669 41.1695 11.0669 41.7V53.7333C11.0669 53.9959 11.1186 54.256 11.2191 54.4986C11.3196 54.7413 11.467 54.9618 11.6527 55.1475C11.8384 55.3332 12.0589 55.4805 12.3015 55.581C12.5442 55.6816 12.8043 55.7333 13.0669 55.7333H25.1002C25.6307 55.7333 26.1394 55.5226 26.5144 55.1475C26.8895 54.7724 27.1002 54.2637 27.1002 53.7333V41.7C27.1002 41.1695 26.8895 40.6608 26.5144 40.2857C26.1394 39.9107 25.6307 39.7 25.1002 39.7Z" fill="#0063FF"/>
<path d="M45.6663 29.6002V52.4002H36.2996V29.6002H45.6663ZM46.2663 26.2668H35.6996C34.9805 26.2668 34.2902 26.5502 33.7786 27.0556C33.2669 27.561 32.9751 28.2477 32.9663 28.9668V53.0335C32.9751 53.7526 33.2669 54.4394 33.7786 54.9448C34.2902 55.4502 34.9805 55.7336 35.6996 55.7335H46.2663C46.9855 55.7336 47.6757 55.4502 48.1874 54.9448C48.699 54.4394 48.9909 53.7526 48.9996 53.0335V28.9668C48.9909 28.2477 48.699 27.561 48.1874 27.0556C47.6757 26.5502 46.9855 26.2668 46.2663 26.2668Z" fill="#0063FF"/>
<path d="M67.2005 4.3334C67.2978 4.3334 67.391 4.37203 67.4598 4.4408C67.5286 4.50956 67.5672 4.60282 67.5672 4.70007V52.0334C67.5672 52.1307 67.5286 52.2239 67.4598 52.2927C67.391 52.3614 67.2978 52.4001 67.2005 52.4001H58.5672C58.4699 52.4001 58.3767 52.3614 58.3079 52.2927C58.2392 52.2239 58.2005 52.1307 58.2005 52.0334V4.70007C58.2005 4.60282 58.2392 4.50956 58.3079 4.4408C58.3767 4.37203 58.4699 4.3334 58.5672 4.3334H67.2005ZM67.2005 1.00007H58.5672C57.5859 1.00007 56.6448 1.38989 55.9509 2.08377C55.257 2.77766 54.8672 3.71877 54.8672 4.70007V52.0334C54.8672 53.0147 55.257 53.9558 55.9509 54.6497C56.6448 55.3436 57.5859 55.7334 58.5672 55.7334H67.2005C67.6948 55.7468 68.1867 55.6609 68.6472 55.481C69.1077 55.301 69.5275 55.0306 69.8817 54.6857C70.2359 54.3408 70.5175 53.9284 70.7096 53.4728C70.9018 53.0173 71.0007 52.5278 71.0005 52.0334V4.70007C71.0007 4.20565 70.9018 3.71621 70.7096 3.26066C70.5175 2.80511 70.2359 2.39269 69.8817 2.04778C69.5275 1.70286 69.1077 1.43244 68.6472 1.25249C68.1867 1.07254 67.6948 0.986707 67.2005 1.00007Z" fill="#0063FF"/>
</svg>
