<svg width="82" height="82" viewBox="0 0 82 82" fill="none" xmlns="http://www.w3.org/2000/svg">
<path d="M41 4.33333C48.252 4.33333 55.3411 6.48379 61.3709 10.5128C67.4007 14.5418 72.1004 20.2683 74.8756 26.9683C77.6508 33.6682 78.3769 41.0407 76.9621 48.1533C75.5473 55.2659 72.0552 61.7993 66.9273 66.9272C61.7993 72.0552 55.266 75.5473 48.1533 76.9621C41.0407 78.3769 33.6682 77.6508 26.9683 74.8756C20.2683 72.1004 14.5418 67.4007 10.5128 61.3709C6.48381 55.3411 4.33335 48.252 4.33335 41C4.33335 31.2754 8.19644 21.9491 15.0728 15.0728C21.9491 8.19642 31.2754 4.33333 41 4.33333ZM41 1C33.0888 1 25.3552 3.34596 18.7772 7.74121C12.1992 12.1365 7.07234 18.3836 4.04484 25.6927C1.01733 33.0017 0.225198 41.0444 1.76861 48.8036C3.31202 56.5628 7.12165 63.6902 12.7157 69.2843C18.3098 74.8784 25.4372 78.688 33.1964 80.2314C40.9556 81.7748 48.9983 80.9827 56.3074 77.9552C63.6164 74.9277 69.8635 69.8008 74.2588 63.2228C78.6541 56.6448 81 48.9112 81 41C81 30.3913 76.7857 20.2172 69.2843 12.7157C61.7828 5.21427 51.6087 1 41 1V1Z" fill="#0063FF"/>
<path d="M41 12.8667V1" stroke="#0063FF" stroke-width="0.5" stroke-linejoin="bevel"/>
<path d="M21.0992 21.1001L12.6992 12.7001" stroke="#0063FF" stroke-width="0.5" stroke-linejoin="bevel"/>
<path d="M12.8667 41H1" stroke="#0063FF" stroke-width="0.5" stroke-linejoin="bevel"/>
<path d="M21.0992 60.8999L12.6992 69.2999" stroke="#0063FF" stroke-width="0.5" stroke-linejoin="bevel"/>
<path d="M41 69.1333V81" stroke="#0063FF" stroke-width="0.5" stroke-linejoin="bevel"/>
<path d="M60.9004 60.8999L69.3004 69.2999" stroke="#0063FF" stroke-width="0.5" stroke-linejoin="bevel"/>
<path d="M69.1333 41H81" stroke="#0063FF" stroke-width="0.5" stroke-linejoin="bevel"/>
<path d="M60.9004 21.1001L69.3004 12.7001" stroke="#0063FF" stroke-width="0.5" stroke-linejoin="bevel"/>
<path d="M52.4998 32.5334C47.7665 32.5334 42.6665 37.1 40.3998 39.4C38.1332 37.1 33.0332 32.5334 28.3332 32.5334C27.1143 32.4204 25.8855 32.5774 24.7342 32.9931C23.5829 33.4088 22.5373 34.073 21.6717 34.9386C20.8062 35.8041 20.1419 36.8497 19.7262 38.0011C19.3105 39.1524 19.1536 40.3812 19.2665 41.6C19.1536 42.8189 19.3105 44.0476 19.7262 45.199C20.1419 46.3503 20.8062 47.3959 21.6717 48.2615C22.5373 49.127 23.5829 49.7912 24.7342 50.207C25.8855 50.6227 27.1143 50.7796 28.3332 50.6667C33.0332 50.6667 38.1332 46.0667 40.3998 43.8C42.6665 46.0667 47.7665 50.6667 52.4998 50.6667C53.7187 50.7796 54.9475 50.6227 56.0988 50.207C57.2501 49.7912 58.2957 49.127 59.1613 48.2615C60.0268 47.3959 60.6911 46.3503 61.1068 45.199C61.5225 44.0476 61.6794 42.8189 61.5665 41.6C61.6794 40.3812 61.5225 39.1524 61.1068 38.0011C60.6911 36.8497 60.0268 35.8041 59.1613 34.9386C58.2957 34.073 57.2501 33.4088 56.0988 32.9931C54.9475 32.5774 53.7187 32.4204 52.4998 32.5334ZM28.3332 47.6667C27.515 47.7766 26.6824 47.6962 25.9003 47.4319C25.1182 47.1676 24.4077 46.7263 23.8239 46.1426C23.2402 45.5588 22.799 44.8483 22.5346 44.0662C22.2703 43.2841 22.1899 42.4516 22.2998 41.6333C22.1785 40.8101 22.2503 39.9699 22.5096 39.1791C22.7688 38.3883 23.2084 37.6687 23.7936 37.0771C24.3788 36.4854 25.0935 36.0379 25.8814 35.77C26.6692 35.5021 27.5086 35.4211 28.3332 35.5333C31.6665 35.5333 36.0665 39.3 38.3332 41.6C36.0665 43.9 31.6665 47.6667 28.3332 47.6667ZM52.4998 47.6667C49.1665 47.6667 44.7665 43.9333 42.4998 41.6333C44.7665 39.3333 49.1665 35.5667 52.4998 35.5667C53.3212 35.4556 54.1572 35.5363 54.9421 35.8025C55.7271 36.0686 56.4397 36.5129 57.0242 37.1006C57.6087 37.6883 58.0491 38.4034 58.3109 39.1898C58.5727 39.9762 58.6488 40.8126 58.5332 41.6333C58.6431 42.4516 58.5627 43.2841 58.2984 44.0662C58.034 44.8483 57.5928 45.5588 57.0091 46.1426C56.4253 46.7263 55.7148 47.1676 54.9327 47.4319C54.1506 47.6962 53.318 47.7766 52.4998 47.6667Z" fill="#0063FF"/>
</svg>
