<svg width="65" height="82" viewBox="0 0 65 82" fill="none" xmlns="http://www.w3.org/2000/svg">
<path d="M62.4131 15.2976C50.5761 15.2976 38.739 9.67835 33.6185 1.66505C33.5203 1.50535 33.391 1.36706 33.2382 1.25842C33.0854 1.14977 32.9124 1.07299 32.7293 1.03265C32.5462 0.992316 32.3569 0.989248 32.1726 1.02363C31.9884 1.05802 31.8129 1.12915 31.6567 1.23279C31.481 1.34136 31.333 1.48935 31.2244 1.66505C26.1039 9.67835 14.3001 15.2976 2.42976 15.2976C2.242 15.2976 2.05608 15.3346 1.88261 15.4065C1.70915 15.4783 1.55153 15.5836 1.41877 15.7164C1.286 15.8492 1.18069 16.0068 1.10883 16.1802C1.03698 16.3537 1 16.5396 1 16.7274L1 45.2893C1 64.1754 19.5536 77.808 32.0889 80.8005C32.3056 80.8672 32.5373 80.8672 32.754 80.8005C45.2893 77.675 63.8429 64.1754 63.8429 45.1563V16.7274C63.8429 16.5396 63.8059 16.3537 63.7341 16.1802C63.6622 16.0068 63.5569 15.8492 63.4241 15.7164C63.2914 15.5836 63.1337 15.4783 62.9603 15.4065C62.7868 15.3346 62.6009 15.2976 62.4131 15.2976ZM60.9834 45.2228C60.9834 63.1447 42.596 75.3143 32.4214 78.0075C22.2469 75.3808 3.85952 63.2112 3.85952 45.2893V18.1239C9.28388 18.0174 14.6262 16.7793 19.5445 14.4891C24.4629 12.1988 28.8488 8.90683 32.4214 4.82382C35.9941 8.90683 40.38 12.1988 45.2983 14.4891C50.2167 16.7793 55.559 18.0174 60.9834 18.1239V45.2228ZM10.9751 40.9003C10.9619 45.1368 12.2057 49.282 14.5492 52.8114C16.8926 56.3408 20.2303 59.0957 24.1399 60.7276C28.0495 62.3595 32.3554 62.7949 36.5126 61.9789C40.6698 61.1629 44.4915 59.1321 47.4941 56.1434C50.4968 53.1547 52.5454 49.3425 53.3808 45.1891C54.2162 41.0358 53.8008 36.728 52.1871 32.8108C50.5735 28.8936 47.8342 25.5431 44.3157 23.1833C40.7973 20.8234 36.658 19.5603 32.4214 19.5537C26.7481 19.5448 21.3031 21.7878 17.2821 25.7901C13.261 29.7925 10.9927 35.2269 10.9751 40.9003ZM50.8753 40.9003C50.8884 44.5769 49.8089 48.1745 47.7738 51.2365C45.7387 54.2985 42.8397 56.6868 39.4448 58.0983C36.05 59.5098 32.3123 59.8809 28.7061 59.1644C25.1 58.4479 21.788 56.6762 19.1906 54.0741C16.5932 51.472 14.8274 48.1568 14.1174 44.5494C13.4074 40.942 13.7852 37.205 15.2029 33.8127C16.6205 30.4203 19.014 27.5257 22.0797 25.4961C25.1453 23.4665 28.7449 22.3934 32.4214 22.4132C37.3134 22.4394 41.997 24.3967 45.453 27.8589C48.9091 31.3212 50.8578 36.0083 50.8753 40.9003Z" fill="#0063FF"/>
<path d="M35.3506 29.4656V47.5504H31.1653V32.8242H27.5483V29.4656H35.3506Z" fill="#0063FF"/>
</svg>
