<svg width="78" height="82" viewBox="0 0 78 82" fill="none" xmlns="http://www.w3.org/2000/svg">
<path d="M71.0002 0.999988H46.8336C45.1715 0.999988 43.5776 1.66022 42.4024 2.83545C41.2271 4.01068 40.5669 5.60463 40.5669 7.26666V29.7667C40.5669 31.4287 41.2271 33.0226 42.4024 34.1979C43.5776 35.3731 45.1715 36.0333 46.8336 36.0333H71.0002C71.8288 36.0421 72.6508 35.8866 73.4188 35.5756C74.1869 35.2646 74.8856 34.8044 75.4746 34.2216C76.0636 33.6388 76.5311 32.945 76.8502 32.1803C77.1693 31.4156 77.3336 30.5953 77.3336 29.7667V7.26666C77.3336 6.43807 77.1693 5.61769 76.8502 4.85301C76.5311 4.08832 76.0636 3.39451 75.4746 2.81171C74.8856 2.22892 74.1869 1.76872 73.4188 1.45774C72.6508 1.14676 71.8288 0.991174 71.0002 0.999988ZM74.3336 29.7667C74.2932 30.5935 73.9466 31.3757 73.3612 31.961C72.7759 32.5463 71.9937 32.8929 71.1669 32.9333H46.8336C46.0127 32.8849 45.2386 32.5348 44.6602 31.9503C44.0818 31.3657 43.7399 30.588 43.7002 29.7667V7.26666C43.7002 6.43564 44.0303 5.63867 44.618 5.05105C45.2056 4.46344 46.0025 4.13332 46.8336 4.13332H71.0002C71.8216 4.17301 72.5993 4.51492 73.1838 5.09331C73.7684 5.6717 74.1185 6.44575 74.1669 7.26666L74.3336 29.7667Z" fill="#0063FF"/>
<path d="M58.9667 7.4666C56.7765 7.46001 54.6336 8.10344 52.8093 9.31545C50.9851 10.5275 49.5614 12.2535 48.7187 14.2751C47.876 16.2967 47.6521 18.5228 48.0753 20.6718C48.4985 22.8207 49.5499 24.7957 51.0963 26.3467C52.6426 27.8978 54.6145 28.9551 56.7621 29.3848C58.9097 29.8145 61.1365 29.5973 63.1607 28.7607C65.1848 27.9241 66.9151 26.5056 68.1326 24.685C69.3501 22.8644 70 20.7235 70 18.5333C70.0001 15.604 68.8387 12.7942 66.7705 10.7197C64.7023 8.64527 61.896 7.47543 58.9667 7.4666ZM58.9667 26.4333C57.3962 26.4333 55.8611 25.9671 54.5557 25.0939C53.2504 24.2207 52.2336 22.9797 51.6341 21.5281C51.0347 20.0766 50.8795 18.4797 51.1883 16.9399C51.4972 15.4001 52.256 13.9866 53.3689 12.8784C54.4817 11.7703 55.8984 11.0173 57.4395 10.715C58.9806 10.4127 60.5768 10.5745 62.0258 11.1801C63.4749 11.7857 64.7116 12.8077 65.5793 14.1167C66.447 15.4257 66.9066 16.9628 66.9 18.5333C66.8912 20.6315 66.0515 22.6409 64.5647 24.1214C63.0778 25.602 61.065 26.4333 58.9667 26.4333Z" fill="#0063FF"/>
<path d="M55.3328 15.3665C54.8662 15.3665 54.4995 16.0665 54.4995 16.9332V20.2665C54.4995 21.1332 54.8662 21.8332 55.3328 21.8332C55.7995 21.8332 56.1662 21.1332 56.1662 20.2665V16.9332C56.1662 16.0665 55.7995 15.3665 55.3328 15.3665Z" fill="#0063FF"/>
<path d="M62.5999 15.3665C62.1333 15.3665 61.7666 16.0665 61.7666 16.9332V20.2665C61.7666 21.1332 62.1333 21.8332 62.5999 21.8332C63.0666 21.8332 63.4333 21.1332 63.4333 20.2665V16.9332C63.4333 16.0665 63.0666 15.3665 62.5999 15.3665Z" fill="#0063FF"/>
<path d="M65.9 77.8666H46.9C45.7065 77.8666 44.5619 77.3925 43.718 76.5486C42.8741 75.7047 42.4 74.5601 42.4 73.3666V60.6999C42.4 58.9318 41.6976 57.2361 40.4474 55.9859C39.1971 54.7356 37.5014 54.0333 35.7333 54.0333C33.9652 54.0333 32.2695 54.7356 31.0193 55.9859C29.769 57.2361 29.0667 58.9318 29.0667 60.6999V73.3333C28.969 74.4728 28.4474 75.5342 27.6049 76.3076C26.7624 77.081 25.6603 77.5101 24.5167 77.5101C23.373 77.5101 22.2709 77.081 21.4284 76.3076C20.5859 75.5342 20.0643 74.4728 19.9667 73.3333V60.2999C20.91 60.257 21.8003 59.8518 22.4523 59.1688C23.1043 58.4858 23.4676 57.5775 23.4667 56.6333V54.9666C24.6032 54.971 25.7294 54.7509 26.7807 54.319C27.832 53.8871 28.7877 53.2519 29.5929 52.4498C30.3981 51.6476 31.037 50.6944 31.473 49.6448C31.9089 48.5952 32.1333 47.4698 32.1333 46.3333V36.6999H34.0667C34.5175 36.6999 34.9499 36.5208 35.2687 36.202C35.5876 35.8832 35.7667 35.4508 35.7667 34.9999V32.0333C35.7667 30.8751 35.3066 29.7645 34.4877 28.9456C33.6688 28.1266 32.5581 27.6666 31.4 27.6666H28.4333V16.1333C28.4333 15.0547 28.0049 14.0203 27.2422 13.2577C26.4796 12.495 25.4452 12.0666 24.3667 12.0666C23.2881 12.0666 22.2537 12.495 21.4911 13.2577C20.7285 14.0203 20.3 15.0547 20.3 16.1333V27.6666H16.4333V16.1333C16.3415 15.1225 15.8752 14.1827 15.1258 13.4983C14.3764 12.8139 13.3982 12.4344 12.3833 12.4344C11.3685 12.4344 10.3903 12.8139 9.64088 13.4983C8.89151 14.1827 8.42512 15.1225 8.33333 16.1333V27.6666H5.33333C4.18101 27.6754 3.07887 28.1393 2.26716 28.9573C1.45545 29.7752 0.999966 30.8809 1 32.0333L1 34.9999C1 35.4508 1.17911 35.8832 1.49792 36.202C1.81673 36.5208 2.24913 36.6999 2.7 36.6999H4.6V46.3333C4.6 48.623 5.50958 50.8189 7.12864 52.4379C8.74771 54.057 10.9436 54.9666 13.2333 54.9666V56.6333C13.2404 57.5751 13.6065 58.4788 14.2568 59.1601C14.9072 59.8414 15.7928 60.249 16.7333 60.2999V73.3333C16.7333 75.3666 17.5411 77.3166 18.9788 78.7544C20.4166 80.1922 22.3667 80.9999 24.4 80.9999C26.4333 80.9999 28.3834 80.1922 29.8211 78.7544C31.2589 77.3166 32.0667 75.3666 32.0667 73.3333V60.6999C32.0667 59.754 32.4424 58.8468 33.1113 58.1779C33.7802 57.509 34.6874 57.1333 35.6333 57.1333C36.5793 57.1333 37.4865 57.509 38.1553 58.1779C38.8242 58.8468 39.2 59.754 39.2 60.6999V73.3666C39.2044 74.3734 39.407 75.3695 39.7963 76.298C40.1857 77.2265 40.7541 78.0692 41.4691 78.778C42.1841 79.4868 43.0317 80.0479 43.9635 80.4291C44.8954 80.8103 45.8932 81.0043 46.9 80.9999H65.9C66.3155 80.9999 66.714 80.8349 67.0078 80.5411C67.3016 80.2473 67.4667 79.8488 67.4667 79.4333C67.4667 79.0178 67.3016 78.6193 67.0078 78.3255C66.714 78.0316 66.3155 77.8666 65.9 77.8666ZM23.4333 16.1333C23.441 15.8938 23.5374 15.6658 23.7036 15.4933C23.8699 15.3209 24.0943 15.2163 24.3333 15.1999C24.5809 15.1999 24.8183 15.2983 24.9933 15.4733C25.1683 15.6483 25.2667 15.8857 25.2667 16.1333V27.6666H23.4333V16.1333ZM11.4333 16.1333C11.4416 15.8884 11.5426 15.6558 11.7159 15.4825C11.8892 15.3092 12.1218 15.2082 12.3667 15.1999C12.6142 15.1999 12.8516 15.2983 13.0266 15.4733C13.2017 15.6483 13.3 15.8857 13.3 16.1333V27.6666H11.4333V16.1333ZM28.6 36.6999H29.0333V46.3333C29.0333 47.0583 28.89 47.7763 28.6115 48.4457C28.333 49.1152 27.9249 49.723 27.4107 50.2342C26.8964 50.7453 26.2861 51.1498 25.615 51.4242C24.9439 51.6986 24.2251 51.8377 23.5 51.8333H13.2333C12.5055 51.8421 11.7831 51.7063 11.1081 51.4339C10.4331 51.1614 9.81888 50.7577 9.30108 50.2461C8.78327 49.7345 8.37217 49.1252 8.09161 48.4535C7.81105 47.7819 7.66661 47.0612 7.66667 46.3333V36.6999H16.1H28.6ZM16.1 33.5666H4.13333V32.0333C4.13322 31.7119 4.25857 31.4031 4.4827 31.1727C4.70684 30.9424 5.01204 30.8086 5.33333 30.7999H31.4C31.7244 30.8084 32.0333 30.941 32.2628 31.1705C32.4923 31.4 32.6249 31.7088 32.6333 32.0333V33.5666H28.6H16.1ZM16.4333 56.6333V54.9666H20.3V56.6333C20.3002 56.7779 20.2451 56.9172 20.146 57.0226C20.0468 57.128 19.9111 57.1914 19.7667 57.1999H17C16.8523 57.1919 16.7128 57.1297 16.6082 57.0251C16.5036 56.9205 16.4413 56.7809 16.4333 56.6333Z" fill="#0063FF"/>
</svg>
