<svg width="111" height="83" viewBox="0 0 111 83" fill="none" xmlns="http://www.w3.org/2000/svg">
<path d="M106.537 58.1815C106.09 58.1697 105.664 57.9835 105.352 57.6627C105.039 57.3419 104.865 56.9117 104.865 56.4639V47.9668C104.825 47.721 104.838 47.4694 104.905 47.2295C104.972 46.9895 105.09 46.7669 105.251 46.5771C105.412 46.3873 105.613 46.2348 105.839 46.1303C106.065 46.0257 106.311 45.9716 106.56 45.9716C106.809 45.9716 107.055 46.0257 107.281 46.1303C107.507 46.2348 107.708 46.3873 107.869 46.5771C108.03 46.7669 108.148 46.9895 108.215 47.2295C108.281 47.4694 108.295 47.721 108.255 47.9668V56.4639C108.255 56.6895 108.21 56.9128 108.124 57.1212C108.038 57.3296 107.911 57.5189 107.752 57.6784C107.592 57.8379 107.403 57.9644 107.194 58.0507C106.986 58.137 106.763 58.1815 106.537 58.1815Z" fill="#0063FF"/>
<path d="M106.538 49.6841C106.224 49.6865 105.916 49.5981 105.652 49.4297C105.387 49.2614 105.177 49.0201 105.046 48.7349L103.329 45.3451C103.228 45.1433 103.167 44.9236 103.151 44.6985C103.135 44.4734 103.164 44.2474 103.235 44.0333C103.306 43.8193 103.419 43.6214 103.567 43.4509C103.715 43.2805 103.895 43.1409 104.097 43.04C104.295 42.94 104.512 42.8805 104.733 42.865C104.955 42.8496 105.178 42.8784 105.388 42.95C105.599 43.0215 105.793 43.1343 105.959 43.2817C106.125 43.429 106.26 43.6081 106.357 43.8084L108.074 47.1982C108.175 47.4 108.236 47.6197 108.252 47.8448C108.268 48.0699 108.239 48.2959 108.168 48.51C108.096 48.724 107.984 48.9219 107.836 49.0924C107.688 49.2628 107.508 49.4024 107.306 49.5033C107.063 49.611 106.803 49.6723 106.538 49.6841Z" fill="#0063FF"/>
<path d="M104.955 46.2486C104.507 46.2488 104.077 46.074 103.756 45.7617C103.435 45.4493 103.249 45.0239 103.237 44.5763C103.17 44.3246 103.17 44.0597 103.237 43.8079L104.955 40.3729C105.194 40.0388 105.544 39.8014 105.943 39.7037C106.342 39.606 106.763 39.6545 107.129 39.8403C107.495 40.0262 107.783 40.3371 107.94 40.7168C108.096 41.0964 108.112 41.5196 107.983 41.9096L106.266 45.3447C106.139 45.5924 105.954 45.8048 105.725 45.9626C105.496 46.1205 105.231 46.2188 104.955 46.2486Z" fill="#0063FF"/>
<path d="M106.537 42.6781C106.135 42.6484 105.756 42.4781 105.467 42.1972C105.178 41.9162 104.997 41.5425 104.955 41.1414C104.933 41.0067 104.933 40.8693 104.955 40.7346L106.673 33.9549C106.721 33.7368 106.812 33.5305 106.941 33.3482C107.069 33.1658 107.233 33.0111 107.423 32.8932C107.613 32.7752 107.824 32.6964 108.044 32.6614C108.265 32.6264 108.49 32.6359 108.707 32.6894C109.145 32.8068 109.52 33.0883 109.756 33.4754C109.992 33.8626 110.069 34.3257 109.972 34.7685L108.255 41.5481C108.129 41.8965 107.893 42.1948 107.584 42.3985C107.274 42.6021 106.907 42.7002 106.537 42.6781Z" fill="#0063FF"/>
<path d="M108.255 36.0342C107.942 36.0292 107.637 35.9433 107.367 35.7848C107.098 35.6264 106.874 35.4009 106.718 35.1303L104.955 31.6952C104.854 31.4995 104.792 31.2856 104.773 31.0659C104.754 30.8461 104.779 30.6249 104.847 30.4148C104.914 30.2048 105.022 30.0101 105.165 29.842C105.307 29.6739 105.482 29.5357 105.678 29.4353C106.08 29.2281 106.548 29.1877 106.98 29.3231C107.411 29.4585 107.772 29.7587 107.984 30.1585L109.701 33.5935C109.801 33.792 109.861 34.0084 109.876 34.2301C109.892 34.4517 109.863 34.6743 109.791 34.8847C109.72 35.0951 109.607 35.2891 109.459 35.4555C109.312 35.6218 109.133 35.7571 108.933 35.8534C108.724 35.9667 108.492 36.0287 108.255 36.0342Z" fill="#0063FF"/>
<path d="M106.537 32.6443C106.105 32.6101 105.702 32.4142 105.409 32.0957C105.115 31.7772 104.953 31.3597 104.955 30.9268C104.954 30.7075 104.998 30.4904 105.083 30.2884C105.169 30.0865 105.294 29.9039 105.452 29.7516L107.124 28.0341C107.284 27.8728 107.474 27.7448 107.683 27.6575C107.893 27.5701 108.117 27.5251 108.344 27.5251C108.571 27.5251 108.796 27.5701 109.006 27.6575C109.215 27.7448 109.405 27.8728 109.565 28.0341C109.725 28.1899 109.852 28.3762 109.939 28.5819C110.025 28.7876 110.07 29.0086 110.07 29.2318C110.07 29.4551 110.025 29.6761 109.939 29.8818C109.852 30.0875 109.725 30.2738 109.565 30.4296L107.847 32.1471C107.674 32.3152 107.469 32.4461 107.243 32.5316C107.018 32.6171 106.777 32.6555 106.537 32.6443Z" fill="#0063FF"/>
<path d="M108.255 30.9273C107.942 30.9222 107.637 30.8363 107.367 30.6779C107.098 30.5195 106.874 30.2939 106.718 30.0233L104.955 26.5883C104.854 26.3926 104.792 26.1787 104.773 25.9589C104.754 25.7392 104.779 25.5179 104.847 25.3079C104.914 25.0978 105.022 24.9032 105.165 24.7351C105.307 24.567 105.482 24.4288 105.678 24.3284C106.08 24.1211 106.548 24.0808 106.98 24.2162C107.411 24.3516 107.772 24.6518 107.984 25.0516L109.701 28.4866C109.801 28.685 109.861 28.9014 109.876 29.1231C109.892 29.3448 109.863 29.5674 109.791 29.7778C109.72 29.9882 109.607 30.1822 109.459 30.3485C109.312 30.5149 109.133 30.6501 108.933 30.7465C108.724 30.8598 108.492 30.9218 108.255 30.9273Z" fill="#0063FF"/>
<path d="M99.7576 29.1193C99.302 29.1193 98.8652 28.9383 98.5431 28.6162C98.221 28.2941 98.04 27.8573 98.04 27.4017C98.0469 27.0184 98.1786 26.6477 98.4151 26.3459C98.6517 26.0441 98.9801 25.8277 99.3508 25.7294L106.13 24.0571C106.357 23.9676 106.599 23.9271 106.842 23.9384C107.085 23.9496 107.323 24.0124 107.54 24.1225C107.757 24.2325 107.948 24.3874 108.1 24.5769C108.253 24.7663 108.364 24.986 108.425 25.2214C108.486 25.4568 108.497 25.7025 108.456 25.9423C108.415 26.1821 108.324 26.4105 108.188 26.6124C108.052 26.8142 107.875 26.9849 107.669 27.1132C107.462 27.2415 107.23 27.3245 106.989 27.3565L100.164 29.1193H99.7576Z" fill="#0063FF"/>
<path d="M94.6511 34.3617C94.1956 34.3617 93.7587 34.1807 93.4366 33.8586C93.1145 33.5365 92.9336 33.0997 92.9336 32.6441C92.9353 32.1884 93.1135 31.751 93.4308 31.4238L98.5381 26.3165C98.865 26.0408 99.2829 25.897 99.7101 25.9131C100.137 25.9292 100.543 26.1041 100.848 26.4036C101.154 26.7031 101.336 27.1057 101.36 27.5326C101.384 27.9595 101.248 28.38 100.979 28.7119L95.9166 33.8645C95.754 34.0337 95.5567 34.1658 95.3383 34.2516C95.1199 34.3374 94.8854 34.375 94.6511 34.3617Z" fill="#0063FF"/>
<path d="M94.6512 34.3618H94.1088L89.0467 32.6443C88.6785 32.454 88.3915 32.137 88.2387 31.7518C88.0859 31.3665 88.0775 30.939 88.2152 30.5481C88.3528 30.1572 88.6272 29.8292 88.9877 29.6247C89.3481 29.4202 89.7704 29.3529 90.1766 29.4353L95.1936 31.1076C95.4066 31.1785 95.6031 31.2915 95.7715 31.44C95.9399 31.5884 96.0767 31.7693 96.1737 31.9717C96.2707 32.1742 96.326 32.3941 96.3362 32.6184C96.3464 32.8426 96.3113 33.0667 96.2331 33.2771C96.1072 33.5947 95.8895 33.8676 95.6077 34.0609C95.3259 34.2541 94.9928 34.3589 94.6512 34.3618Z" fill="#0063FF"/>
<path d="M75.8935 39.4696C75.4459 39.4578 75.0205 39.2717 74.7082 38.9509C74.3958 38.63 74.221 38.1999 74.2212 37.7521C74.2261 37.4342 74.3169 37.1235 74.484 36.8529C74.6511 36.5824 74.8882 36.3621 75.1703 36.2154L88.7297 29.4357C88.9268 29.3291 89.1438 29.2644 89.3671 29.2456C89.5904 29.2268 89.8152 29.2543 90.0274 29.3265C90.2395 29.3986 90.4345 29.5138 90.6001 29.6648C90.7657 29.8158 90.8982 29.9994 90.9895 30.2041C91.0896 30.4025 91.1491 30.6189 91.1645 30.8406C91.18 31.0623 91.1511 31.2848 91.0796 31.4953C91.008 31.7057 90.8953 31.8997 90.7479 32.066C90.6005 32.2323 90.4214 32.3676 90.2212 32.464L76.6619 39.2888C76.4193 39.3966 76.1587 39.4579 75.8935 39.4696Z" fill="#0063FF"/>
<path d="M41.6786 39.4693L31.3735 37.7066C31.1498 37.68 30.9342 37.6072 30.7401 37.4928C30.5461 37.3785 30.3779 37.2252 30.2462 37.0425C30.1145 36.8598 30.0222 36.6518 29.975 36.4315C29.9279 36.2113 29.927 35.9837 29.9723 35.7631C30.0499 35.3224 30.2964 34.9294 30.6594 34.6677C31.0224 34.406 31.4732 34.2963 31.9158 34.362L42.1305 36.0795C42.3656 36.1103 42.5915 36.1908 42.7931 36.3155C42.9947 36.4402 43.1675 36.6064 43.3 36.803C43.4325 36.9997 43.5217 37.2222 43.5616 37.4559C43.6015 37.6896 43.5913 37.9291 43.5317 38.1586C43.4351 38.5651 43.1936 38.9224 42.8525 39.1637C42.5114 39.405 42.094 39.5136 41.6786 39.4693Z" fill="#0063FF"/>
<path d="M31.6452 37.7521C31.3934 37.8192 31.1285 37.8192 30.8768 37.7521L27.487 36.0346C27.0854 35.8368 26.7789 35.4876 26.6348 35.0638C26.4907 34.64 26.5208 34.1763 26.7186 33.7747C26.9164 33.3731 27.2656 33.0666 27.6894 32.9225C28.1132 32.7784 28.5769 32.8086 28.9785 33.0063L32.6395 34.5431C33.0356 34.7466 33.3371 35.0961 33.4804 35.5177C33.6238 35.9393 33.5978 36.4001 33.4079 36.8029C33.245 37.1213 32.9892 37.3825 32.6743 37.5521C32.3595 37.7216 32.0006 37.7913 31.6452 37.7521Z" fill="#0063FF"/>
<path d="M28.1196 36.0342C27.6718 36.0343 27.2417 35.8596 26.9208 35.5472C26.6 35.2348 26.4139 34.8095 26.4021 34.3619C26.3803 34.1817 26.3803 33.9996 26.4021 33.8195L28.1196 28.7121C28.1806 28.4967 28.2854 28.2962 28.4275 28.1232C28.5695 27.9501 28.7458 27.8083 28.9451 27.7064C29.1445 27.6046 29.3628 27.545 29.5863 27.5314C29.8097 27.5178 30.0336 27.5505 30.2439 27.6274C30.4557 27.694 30.6521 27.8021 30.8217 27.9454C30.9912 28.0888 31.1306 28.2644 31.2316 28.4621C31.3325 28.6599 31.3931 28.8758 31.4098 29.0972C31.4265 29.3186 31.3989 29.5411 31.3286 29.7517L29.8371 34.9042C29.7175 35.2569 29.4836 35.5596 29.1725 35.7643C28.8614 35.969 28.4908 36.064 28.1196 36.0342Z" fill="#0063FF"/>
<path d="M29.928 30.9265C29.4924 30.9347 29.0707 30.7725 28.7528 30.4745L25.363 27.2655C25.051 26.9448 24.8765 26.5151 24.8765 26.0677C24.8765 25.6204 25.051 25.1906 25.363 24.87C25.6912 24.5551 26.1285 24.3793 26.5834 24.3793C27.0382 24.3793 27.4755 24.5551 27.8037 24.87L31.1935 28.079C31.4578 28.3064 31.6444 28.6107 31.7272 28.9494C31.8101 29.288 31.785 29.6441 31.6555 29.9678C31.526 30.2915 31.2986 30.5666 31.0051 30.7547C30.7116 30.9428 30.3666 31.0345 30.0184 31.0169L29.928 30.9265Z" fill="#0063FF"/>
<path d="M18.0398 36.0339C17.592 36.034 17.1618 35.8593 16.841 35.5469C16.5202 35.2345 16.334 34.8092 16.3223 34.3615C16.324 33.9058 16.5022 33.4684 16.8194 33.1412L25.3618 24.8248C25.5176 24.6649 25.7039 24.5378 25.9096 24.4511C26.1153 24.3643 26.3363 24.3196 26.5596 24.3196C26.7828 24.3196 27.0038 24.3643 27.2095 24.4511C27.4152 24.5378 27.6015 24.6649 27.7573 24.8248C28.0693 25.1455 28.2438 25.5752 28.2438 26.0226C28.2438 26.4699 28.0693 26.8997 27.7573 27.2203L19.0793 35.5819C18.8005 35.8558 18.4302 36.0168 18.0398 36.0339Z" fill="#0063FF"/>
<path d="M11.216 39.4696C10.7605 39.4696 10.3237 39.2887 10.0016 38.9666C9.67949 38.6445 9.49854 38.2076 9.49854 37.7521C9.50343 37.4342 9.59423 37.1235 9.76133 36.853C9.92842 36.5824 10.1656 36.3621 10.4477 36.2154L17.2725 32.8256C17.4737 32.727 17.6927 32.6699 17.9164 32.6576C18.1401 32.6452 18.3639 32.678 18.5747 32.7539C18.7855 32.8298 18.9789 32.9472 19.1434 33.0993C19.308 33.2514 19.4402 33.435 19.5324 33.6391C19.6405 33.8335 19.7075 34.0479 19.7295 34.2692C19.7514 34.4904 19.7277 34.7138 19.66 34.9256C19.5922 35.1374 19.4818 35.333 19.3354 35.5004C19.1891 35.6678 19.0101 35.8035 18.8093 35.899L11.9844 39.3341C11.7389 39.4263 11.4783 39.4723 11.216 39.4696Z" fill="#0063FF"/>
<path d="M9.49687 46.2488C9.05695 46.2373 8.6382 46.0575 8.32702 45.7463C8.01585 45.4351 7.83599 45.0164 7.82456 44.5765C7.80262 44.4417 7.80262 44.3044 7.82456 44.1697L9.49687 37.3448C9.60476 36.8953 9.88679 36.507 10.2809 36.2655C10.6751 36.0239 11.149 35.9488 11.5986 36.0567C12.0481 36.1646 12.4363 36.4466 12.6779 36.8407C12.9195 37.2349 12.9946 37.7089 12.8867 38.1584L11.1692 44.9832C11.0766 45.3533 10.8602 45.6805 10.5561 45.9107C10.2519 46.1409 9.87816 46.2602 9.49687 46.2488Z" fill="#0063FF"/>
<path d="M11.2157 53.0738C10.8263 53.0643 10.451 52.9261 10.1485 52.6808C9.84594 52.4355 9.63316 52.0969 9.54339 51.7179L7.87107 44.9382C7.78154 44.712 7.74107 44.4695 7.75233 44.2265C7.7636 43.9835 7.82634 43.7457 7.93642 43.5288C8.04649 43.3119 8.20139 43.1208 8.39084 42.9683C8.5803 42.8157 8.79999 42.7051 9.03539 42.6439C9.27079 42.5826 9.51651 42.572 9.7563 42.6129C9.99609 42.6537 10.2245 42.745 10.4263 42.8807C10.6282 43.0164 10.7989 43.1935 10.9272 43.4001C11.0555 43.6068 11.1384 43.8383 11.1705 44.0795L12.888 50.8591C12.9848 51.3019 12.9074 51.765 12.6717 52.1522C12.436 52.5393 12.0603 52.8208 11.6225 52.9382L11.2157 53.0738Z" fill="#0063FF"/>
<path d="M6.10716 54.7916C5.65165 54.7916 5.21479 54.6106 4.8927 54.2885C4.5706 53.9664 4.38965 53.5296 4.38965 53.0741C4.39328 52.7209 4.50295 52.3769 4.70443 52.0868C4.90591 51.7966 5.1899 51.5737 5.51959 51.4469L10.6269 49.7746C11.0527 49.6293 11.5184 49.6567 11.9241 49.8511C12.3298 50.0455 12.643 50.3913 12.7964 50.8142C12.9396 51.2457 12.9058 51.7165 12.7025 52.1231C12.4991 52.5298 12.1428 52.8393 11.7117 52.9837L6.60434 54.7012L6.10716 54.7916Z" fill="#0063FF"/>
<path d="M6.10804 54.7913C5.85404 54.838 5.59367 54.838 5.33967 54.7913L1.94984 53.0738C1.70806 52.9937 1.48712 52.8608 1.30303 52.6848C1.11894 52.5088 0.976295 52.294 0.885442 52.0561C0.794589 51.8181 0.757796 51.563 0.777729 51.309C0.797662 51.0551 0.873821 50.8088 1.00069 50.5879C1.21227 50.1882 1.57302 49.888 2.0046 49.7526C2.43618 49.6172 2.90374 49.6575 3.30578 49.8648L6.8764 51.7179C7.22277 51.8908 7.50057 52.1756 7.66476 52.5262C7.82894 52.8768 7.86988 53.2725 7.78092 53.6493C7.69196 54.026 7.47833 54.3617 7.17468 54.6018C6.87102 54.8419 6.49515 54.9724 6.10804 54.9721V54.7913Z" fill="#0063FF"/>
<path d="M9.49776 66.8589C9.21865 66.8579 8.94422 66.7871 8.69949 66.6529C8.45475 66.5187 8.24751 66.3254 8.09663 66.0905L1.27178 55.6951C1.03097 55.3161 0.948167 54.8578 1.0411 54.4185C1.13403 53.9792 1.3953 53.5938 1.76895 53.3448C2.14795 53.104 2.60617 53.0212 3.04548 53.1141C3.48478 53.207 3.87022 53.4683 4.11923 53.842L10.9441 64.2374C11.1849 64.6164 11.2677 65.0747 11.1748 65.514C11.0818 65.9533 10.8206 66.3387 10.4469 66.5877C10.165 66.7716 9.83423 66.8661 9.49776 66.8589Z" fill="#0063FF"/>
<path d="M2.71751 56.4637C2.49413 56.4697 2.2718 56.4309 2.06366 56.3496C1.85552 56.2682 1.66579 56.146 1.50568 55.9901C1.34557 55.8342 1.21833 55.6478 1.13148 55.4419C1.04463 55.236 0.999918 55.0148 1 54.7913V51.3563C1.06587 50.9543 1.27248 50.5888 1.58296 50.325C1.89343 50.0613 2.28754 49.9165 2.69492 49.9165C3.10229 49.9165 3.4964 50.0613 3.80687 50.325C4.11735 50.5888 4.32396 50.9543 4.38983 51.3563V54.7913C4.38983 55.011 4.34657 55.2284 4.26253 55.4313C4.17849 55.6342 4.05531 55.8186 3.90002 55.9739C3.74473 56.1291 3.56038 56.2523 3.35748 56.3364C3.15459 56.4204 2.93713 56.4637 2.71751 56.4637Z" fill="#0063FF"/>
<path d="M9.76893 66.6786C9.32901 66.6672 8.91026 66.4874 8.59909 66.1762C8.28791 65.865 8.10805 65.4462 8.09662 65.0063C8.0875 64.7899 8.12291 64.574 8.20066 64.3719C8.2784 64.1697 8.39683 63.9857 8.54859 63.8312L11.6672 60.4414C11.9889 60.1911 12.389 60.0633 12.7962 60.0809C13.2033 60.0986 13.591 60.2604 13.8898 60.5375C14.1886 60.8146 14.3792 61.1889 14.4274 61.5936C14.4757 61.9982 14.3784 62.4069 14.1531 62.7464L11.0345 66.1363C10.876 66.3137 10.6806 66.4542 10.4619 66.5479C10.2432 66.6416 10.0067 66.6862 9.76893 66.6786Z" fill="#0063FF"/>
<path d="M12.9334 63.2884C12.4779 63.2884 12.041 63.1075 11.7189 62.7854C11.3968 62.4633 11.2159 62.0264 11.2159 61.5709C11.2135 61.2573 11.3018 60.9496 11.4702 60.685C11.6386 60.4204 11.8799 60.2101 12.165 60.0794L15.5548 58.3619C15.7566 58.2609 15.9764 58.2007 16.2014 58.1846C16.4265 58.1686 16.6525 58.1971 16.8666 58.2684C17.0807 58.3398 17.2786 58.4526 17.449 58.6005C17.6195 58.7484 17.7591 58.9284 17.8599 59.1302C18.0498 59.5331 18.0758 59.9939 17.9325 60.4155C17.7891 60.8371 17.4876 61.1866 17.0916 61.3901L13.7017 63.1077C13.465 63.2319 13.2007 63.2941 12.9334 63.2884Z" fill="#0063FF"/>
<path d="M16.3222 61.5708C16.0098 61.5657 15.704 61.4798 15.4346 61.3214C15.1653 61.163 14.9417 60.9374 14.7855 60.6668L13.1131 57.2318C13.0152 57.033 12.9574 56.8168 12.943 56.5956C12.9286 56.3744 12.9579 56.1526 13.0293 55.9427C13.1006 55.7329 13.2126 55.5391 13.3588 55.3726C13.5051 55.206 13.6827 55.0698 13.8815 54.9719C14.0803 54.874 14.2965 54.8162 14.5177 54.8018C14.7389 54.7874 14.9607 54.8167 15.1706 54.8881C15.3804 54.9594 15.5742 55.0714 15.7407 55.2176C15.9073 55.3638 16.0435 55.5414 16.1414 55.7403L17.8589 59.1301C18.0488 59.5329 18.0748 59.9937 17.9315 60.4153C17.7881 60.8369 17.4866 61.1864 17.0905 61.39C16.8553 61.5182 16.5899 61.5806 16.3222 61.5708Z" fill="#0063FF"/>
<path d="M21.43 58.1809H14.5599C14.1579 58.115 13.7924 57.9084 13.5287 57.5979C13.2649 57.2874 13.1201 56.8933 13.1201 56.4859C13.1201 56.0786 13.2649 55.6845 13.5287 55.374C13.7924 55.0635 14.1579 54.8569 14.5599 54.791H21.43C21.6758 54.7508 21.9273 54.7644 22.1673 54.8311C22.4072 54.8977 22.6298 55.0157 22.8196 55.177C23.0094 55.3382 23.1619 55.5388 23.2665 55.7648C23.371 55.9908 23.4252 56.2369 23.4252 56.4859C23.4252 56.735 23.371 56.9811 23.2665 57.2071C23.1619 57.4331 23.0094 57.6337 22.8196 57.7949C22.6298 57.9562 22.4072 58.0742 22.1673 58.1408C21.9273 58.2075 21.6758 58.2211 21.43 58.1809Z" fill="#0063FF"/>
<path d="M26.5374 63.2881C26.0816 63.2864 25.6442 63.1082 25.317 62.7909L20.2097 57.6836C19.8977 57.3629 19.7231 56.9332 19.7231 56.4858C19.7231 56.0384 19.8977 55.6087 20.2097 55.2881C20.3655 55.1282 20.5518 55.0011 20.7575 54.9143C20.9632 54.8275 21.1842 54.7828 21.4074 54.7828C21.6307 54.7828 21.8517 54.8275 22.0574 54.9143C22.2631 55.0011 22.4494 55.1282 22.6052 55.2881L27.7125 60.3954C27.94 60.6377 28.0922 60.9409 28.1508 61.268C28.2094 61.5951 28.1719 61.9323 28.0427 62.2385C27.9135 62.5447 27.6983 62.8068 27.423 62.9931C27.1478 63.1794 26.8245 63.2819 26.4922 63.2881H26.5374Z" fill="#0063FF"/>
<path d="M26.5369 63.2886C26.0813 63.2886 25.6445 63.1076 25.3224 62.7856C25.0003 62.4635 24.8193 62.0266 24.8193 61.5711C24.8188 61.3518 24.8625 61.1347 24.9479 60.9327C25.0334 60.7308 25.1587 60.5482 25.3165 60.3959L28.7515 56.9609C29.0722 56.6489 29.5019 56.4744 29.9493 56.4744C30.3967 56.4744 30.8264 56.6489 31.147 56.9609C31.4488 57.2868 31.6165 57.7145 31.6165 58.1587C31.6165 58.6028 31.4488 59.0305 31.147 59.3564L27.7572 62.7462C27.4373 63.0801 26.999 63.2749 26.5369 63.2886Z" fill="#0063FF"/>
<path d="M36.7525 61.571H36.3457L29.5208 59.8535C29.0773 59.7456 28.6948 59.4659 28.4575 59.076C28.2201 58.6861 28.1474 58.2179 28.2553 57.7744C28.3632 57.3309 28.6429 56.9484 29.0328 56.711C29.4227 56.4737 29.8909 56.401 30.3344 56.5089L37.1593 58.2264C37.6028 58.2803 38.0067 58.5082 38.2822 58.86C38.5577 59.2118 38.6821 59.6585 38.6282 60.1021C38.5742 60.5456 38.3463 60.9495 37.9946 61.225C37.6428 61.5005 37.196 61.6249 36.7525 61.571Z" fill="#0063FF"/>
<path d="M38.4695 65.006C38.1885 64.9716 37.9209 64.8665 37.6916 64.7005C37.4624 64.5345 37.279 64.3131 37.1587 64.0569L35.2152 60.7574C35.0231 60.348 34.9958 59.8804 35.1388 59.4513C35.2818 59.0223 35.5843 58.6646 35.9836 58.4523C36.1854 58.3514 36.4051 58.2911 36.6302 58.2751C36.8552 58.2591 37.0813 58.2875 37.2953 58.3589C37.5094 58.4302 37.7073 58.5431 37.8778 58.691C38.0482 58.8388 38.1878 59.0188 38.2887 59.2207L39.961 62.6105C40.1683 63.0126 40.2086 63.4801 40.0732 63.9117C39.9378 64.3433 39.6376 64.704 39.2378 64.9156C38.9883 64.9872 38.7288 65.0177 38.4695 65.006Z" fill="#0063FF"/>
<path d="M41.6785 65.0062H38.4695C38.014 65.0062 37.5771 64.8252 37.255 64.5032C36.9329 64.1811 36.752 63.7442 36.752 63.2887C36.752 62.8332 36.9329 62.3963 37.255 62.0742C37.5771 61.7521 38.014 61.5712 38.4695 61.5712H41.6785C41.9041 61.5712 42.1274 61.6156 42.3358 61.7019C42.5442 61.7882 42.7335 61.9147 42.893 62.0742C43.0525 62.2337 43.179 62.423 43.2653 62.6314C43.3516 62.8398 43.396 63.0631 43.396 63.2887C43.396 63.5142 43.3516 63.7376 43.2653 63.9459C43.179 64.1543 43.0525 64.3437 42.893 64.5032C42.7335 64.6626 42.5442 64.7891 42.3358 64.8755C42.1274 64.9618 41.9041 65.0062 41.6785 65.0062Z" fill="#0063FF"/>
<path d="M43.5769 70.1133C43.2167 70.1128 42.8658 69.9991 42.5738 69.7882C42.2818 69.5773 42.0635 69.28 41.9498 68.9382L40.2323 63.8309C40.147 63.6139 40.1068 63.3818 40.1141 63.1487C40.1215 62.9157 40.1762 62.6866 40.2749 62.4754C40.3737 62.2641 40.5144 62.0752 40.6885 61.9202C40.8626 61.7651 41.0665 61.6471 41.2877 61.5734C41.5089 61.4996 41.7428 61.4717 41.9751 61.4913C42.2074 61.5109 42.4333 61.5776 42.6391 61.6873C42.8448 61.797 43.026 61.9475 43.1717 62.1295C43.3174 62.3116 43.4245 62.5214 43.4865 62.7461L45.1588 67.8535C45.3042 68.2792 45.2767 68.7449 45.0823 69.1506C44.8879 69.5563 44.5421 69.8695 44.1193 70.023L43.5769 70.1133Z" fill="#0063FF"/>
<path d="M48.685 73.5032C48.3485 73.5104 48.0177 73.4158 47.7358 73.232L42.6285 69.797C42.2569 69.5452 42.0005 69.1562 41.9157 68.7154C41.831 68.2747 41.9248 67.8183 42.1765 67.4467C42.4282 67.0751 42.8173 66.8187 43.258 66.7339C43.6988 66.6492 44.1552 66.743 44.5268 66.9947L49.6341 70.3845C49.8202 70.5074 49.9799 70.6662 50.1037 70.8517C50.2276 71.0371 50.3131 71.2455 50.3552 71.4645C50.3973 71.6835 50.3952 71.9087 50.349 72.1268C50.3028 72.345 50.2134 72.5517 50.0861 72.7348C49.9352 72.9697 49.728 73.163 49.4832 73.2972C49.2385 73.4314 48.9641 73.5022 48.685 73.5032Z" fill="#0063FF"/>
<path d="M48.6849 73.5033C48.4594 73.5033 48.236 73.4589 48.0276 73.3726C47.8193 73.2863 47.6299 73.1598 47.4704 73.0003C47.311 72.8408 47.1844 72.6515 47.0981 72.4431C47.0118 72.2347 46.9674 72.0114 46.9674 71.7858C46.9633 71.4299 47.076 71.0825 47.2882 70.7967C47.5005 70.511 47.8006 70.3028 48.1425 70.2039L53.2499 68.4864C53.4606 68.4152 53.6833 68.3862 53.9052 68.401C54.1271 68.4158 54.3439 68.4742 54.5433 68.5728C54.7427 68.6715 54.9206 68.8084 55.0671 68.9758C55.2135 69.1432 55.3255 69.3378 55.3968 69.5486C55.468 69.7593 55.497 69.9819 55.4822 70.2039C55.4674 70.4258 55.409 70.6426 55.3103 70.842C55.2117 71.0413 55.0748 71.2193 54.9074 71.3657C54.7399 71.5122 54.5453 71.6242 54.3346 71.6954L49.2273 73.413L48.6849 73.5033Z" fill="#0063FF"/>
<path d="M57.1813 73.5032C56.9296 73.5703 56.6647 73.5703 56.4129 73.5032L53.0231 71.7857C52.6215 71.5879 52.315 71.2387 52.1709 70.8149C52.0268 70.3911 52.057 69.9274 52.2548 69.5258C52.4525 69.1242 52.8017 68.8177 53.2256 68.6736C53.6494 68.5295 54.1131 68.5596 54.5146 68.7574L57.9045 70.4749C58.3005 70.6785 58.602 71.028 58.7454 71.4496C58.8887 71.8712 58.8627 72.332 58.6728 72.7348C58.5076 72.9768 58.2848 73.1737 58.0244 73.3079C57.7639 73.442 57.4742 73.5092 57.1813 73.5032Z" fill="#0063FF"/>
<path d="M57.1819 73.5029C56.7264 73.5029 56.2895 73.3219 55.9674 72.9998C55.6453 72.6777 55.4644 72.2409 55.4644 71.7854C55.4638 71.5661 55.5075 71.349 55.5929 71.147C55.6784 70.9451 55.8038 70.7625 55.9615 70.6102L57.679 68.8927C57.8349 68.7328 58.0211 68.6057 58.2268 68.5189C58.4325 68.4322 58.6535 68.3875 58.8768 68.3875C59.1001 68.3875 59.3211 68.4322 59.5268 68.5189C59.7325 68.6057 59.9187 68.7328 60.0745 68.8927C60.2331 69.0446 60.3593 69.227 60.4456 69.429C60.5318 69.6309 60.5762 69.8482 60.5762 70.0678C60.5762 70.2874 60.5318 70.5048 60.4456 70.7067C60.3593 70.9087 60.2331 71.0911 60.0745 71.243L58.4022 72.9605C58.0823 73.2943 57.644 73.4891 57.1819 73.5029Z" fill="#0063FF"/>
<path d="M69.1131 75.2209H68.5707L58.3561 71.7859C58.1406 71.7249 57.9401 71.6201 57.7671 71.478C57.5941 71.336 57.4522 71.1597 57.3504 70.9603C57.2485 70.7609 57.189 70.5427 57.1754 70.3192C57.1618 70.0957 57.1944 69.8719 57.2713 69.6616C57.3379 69.4498 57.446 69.2534 57.5894 69.0838C57.7327 68.9142 57.9083 68.7749 58.1061 68.6739C58.3038 68.5729 58.5197 68.5124 58.7411 68.4957C58.9625 68.479 59.185 68.5066 59.3956 68.5768L69.6103 71.9667C70.0332 72.1201 70.379 72.4333 70.5733 72.839C70.7677 73.2447 70.7952 73.7105 70.6498 74.1362C70.527 74.4468 70.3161 74.7149 70.0432 74.9076C69.7702 75.1003 69.447 75.2092 69.1131 75.2209Z" fill="#0063FF"/>
<path d="M69.1145 75.221C68.8889 75.221 68.6656 75.1766 68.4572 75.0903C68.2488 75.004 68.0595 74.8775 67.9 74.718C67.7405 74.5585 67.614 74.3691 67.5277 74.1608C67.4414 73.9524 67.397 73.729 67.397 73.5035C67.4019 73.1856 67.4927 72.8749 67.6598 72.6043C67.8269 72.3338 68.064 72.1135 68.3461 71.9668L71.736 70.2945C71.9365 70.1871 72.1568 70.1218 72.3834 70.1026C72.61 70.0833 72.8382 70.1105 73.0539 70.1824C73.2697 70.2543 73.4685 70.3695 73.6382 70.5209C73.808 70.6722 73.945 70.8567 74.041 71.0628C74.2309 71.4656 74.2569 71.9264 74.1136 72.3481C73.9702 72.7697 73.6687 73.1191 73.2727 73.3227L69.8829 75.0402C69.6385 75.1426 69.3788 75.2037 69.1145 75.221Z" fill="#0063FF"/>
<path d="M75.8938 73.5035H72.504C72.2582 73.5438 72.0067 73.5301 71.7667 73.4635C71.5267 73.3968 71.3041 73.2788 71.1143 73.1176C70.9245 72.9563 70.7721 72.7557 70.6675 72.5297C70.5629 72.3037 70.5088 72.0576 70.5088 71.8086C70.5088 71.5595 70.5629 71.3135 70.6675 71.0875C70.7721 70.8614 70.9245 70.6608 71.1143 70.4996C71.3041 70.3384 71.5267 70.2203 71.7667 70.1537C72.0067 70.0871 72.2582 70.0734 72.504 70.1137H75.8938C76.1396 70.0734 76.3912 70.0871 76.6311 70.1537C76.8711 70.2203 77.0937 70.3384 77.2835 70.4996C77.4733 70.6608 77.6258 70.8614 77.7303 71.0875C77.8349 71.3135 77.889 71.5595 77.889 71.8086C77.889 72.0576 77.8349 72.3037 77.7303 72.5297C77.6258 72.7557 77.4733 72.9563 77.2835 73.1176C77.0937 73.2788 76.8711 73.3968 76.6311 73.4635C76.3912 73.5301 76.1396 73.5438 75.8938 73.5035Z" fill="#0063FF"/>
<path d="M75.8933 73.5031C75.4457 73.4913 75.0204 73.3051 74.708 72.9843C74.3956 72.6635 74.2209 72.2333 74.221 71.7855C74.177 71.6074 74.177 71.4213 74.221 71.2432L75.8933 66.1358C76.0468 65.713 76.36 65.3672 76.7657 65.1728C77.1714 64.9784 77.6371 64.9509 78.0628 65.0963C78.2746 65.1629 78.471 65.271 78.6406 65.4143C78.8102 65.5577 78.9495 65.7333 79.0505 65.931C79.1515 66.1288 79.2121 66.3446 79.2287 66.566C79.2454 66.7874 79.2178 67.01 79.1476 67.2206L77.4301 72.3279C77.3272 72.6589 77.1242 72.9497 76.8489 73.1603C76.5736 73.3708 76.2397 73.4906 75.8933 73.5031Z" fill="#0063FF"/>
<path d="M80.9999 68.3956H77.836C77.5903 68.4359 77.3387 68.4222 77.0987 68.3556C76.8588 68.2889 76.6362 68.1709 76.4464 68.0096C76.2566 67.8484 76.1041 67.6478 75.9995 67.4218C75.895 67.1958 75.8408 66.9497 75.8408 66.7007C75.8408 66.4516 75.895 66.2056 75.9995 65.9795C76.1041 65.7535 76.2566 65.5529 76.4464 65.3917C76.6362 65.2305 76.8588 65.1124 77.0987 65.0458C77.3387 64.9791 77.5903 64.9655 77.836 65.0058H81.2259C81.4716 64.9655 81.7232 64.9791 81.9632 65.0458C82.2031 65.1124 82.4257 65.2305 82.6155 65.3917C82.8053 65.5529 82.9578 65.7535 83.0624 65.9795C83.1669 66.2056 83.2211 66.4516 83.2211 66.7007C83.2211 66.9497 83.1669 67.1958 83.0624 67.4218C82.9578 67.6478 82.8053 67.8484 82.6155 68.0096C82.4257 68.1709 82.2031 68.2889 81.9632 68.3556C81.7232 68.4222 81.4716 68.4359 81.2259 68.3956H80.9999Z" fill="#0063FF"/>
<path d="M84.4364 71.7859C83.9806 71.7842 83.5432 71.606 83.216 71.2888L79.8262 67.8989C79.6689 67.7416 79.5441 67.5549 79.459 67.3494C79.3739 67.1439 79.3301 66.9236 79.3301 66.7012C79.3301 66.4787 79.3739 66.2585 79.459 66.053C79.5441 65.8475 79.6689 65.6607 79.8262 65.5034C79.9835 65.3462 80.1702 65.2214 80.3757 65.1363C80.5812 65.0511 80.8015 65.0073 81.0239 65.0073C81.2464 65.0073 81.4666 65.0511 81.6722 65.1363C81.8777 65.2214 82.0644 65.3462 82.2217 65.5034L85.6115 68.8933C85.7714 69.0491 85.8985 69.2353 85.9853 69.441C86.072 69.6468 86.1168 69.8678 86.1168 70.091C86.1168 70.3143 86.072 70.5353 85.9853 70.741C85.8985 70.9467 85.7714 71.1329 85.6115 71.2888C85.4592 71.4465 85.2767 71.5719 85.0747 71.6573C84.8728 71.7428 84.6556 71.7865 84.4364 71.7859Z" fill="#0063FF"/>
<path d="M87.8253 73.5034C87.5736 73.5705 87.3087 73.5705 87.057 73.5034L83.6671 71.7859C83.4669 71.6896 83.2878 71.5543 83.1404 71.3879C82.993 71.2216 82.8803 71.0276 82.8087 70.8172C82.7372 70.6068 82.7083 70.3842 82.7238 70.1625C82.7392 69.9408 82.7987 69.7244 82.8988 69.526C82.9996 69.3241 83.1392 69.1441 83.3097 68.9963C83.4801 68.8484 83.678 68.7355 83.8921 68.6642C84.1062 68.5928 84.3322 68.5644 84.5573 68.5804C84.7824 68.5964 85.0021 68.6567 85.2039 68.7576L88.5937 70.4752C88.9897 70.6787 89.2912 71.0282 89.4346 71.4498C89.5779 71.8714 89.5519 72.3322 89.362 72.735C89.1927 72.9836 88.9626 73.1846 88.6936 73.3191C88.4247 73.4536 88.1257 73.517 87.8253 73.5034Z" fill="#0063FF"/>
<path d="M87.825 73.5031C87.3695 73.5031 86.9326 73.3221 86.6105 73C86.2884 72.6779 86.1075 72.2411 86.1075 71.7856C86.1051 71.4719 86.1934 71.1643 86.3618 70.8997C86.5302 70.635 86.7715 70.4247 87.0566 70.294L90.4917 68.5765C90.6905 68.4786 90.9067 68.4208 91.1279 68.4064C91.349 68.392 91.5709 68.4213 91.7807 68.4927C91.9906 68.564 92.1843 68.676 92.3509 68.8222C92.5175 68.9684 92.6536 69.146 92.7515 69.3449C92.8495 69.5437 92.9073 69.7599 92.9217 69.9811C92.9361 70.2023 92.9068 70.4241 92.8354 70.634C92.7641 70.8438 92.6521 71.0376 92.5059 71.2041C92.3596 71.3707 92.182 71.5068 91.9832 71.6048L88.5933 73.3223C88.3581 73.4505 88.0927 73.5129 87.825 73.5031Z" fill="#0063FF"/>
<path d="M91.3956 75.2207C90.948 75.2089 90.5226 75.0228 90.2103 74.702C89.8979 74.3811 89.7231 73.951 89.7233 73.5032V70.1134C89.683 69.8676 89.6967 69.616 89.7633 69.3761C89.83 69.1361 89.948 68.9135 90.1092 68.7237C90.2705 68.5339 90.471 68.3814 90.6971 68.2769C90.9231 68.1723 91.1692 68.1182 91.4182 68.1182C91.6672 68.1182 91.9133 68.1723 92.1393 68.2769C92.3653 68.3814 92.5659 68.5339 92.7272 68.7237C92.8884 68.9135 93.0064 69.1361 93.0731 69.3761C93.1397 69.616 93.1534 69.8676 93.1131 70.1134V73.5032C93.1131 73.7288 93.0687 73.9521 92.9824 74.1605C92.8961 74.3689 92.7695 74.5582 92.6101 74.7177C92.4506 74.8772 92.2612 75.0037 92.0529 75.09C91.8445 75.1763 91.6211 75.2207 91.3956 75.2207Z" fill="#0063FF"/>
<path d="M89.5424 78.8368C89.2907 78.9039 89.0258 78.9039 88.7741 78.8368C88.5738 78.7404 88.3947 78.6051 88.2474 78.4388C88.1 78.2725 87.9872 78.0785 87.9157 77.868C87.8441 77.6576 87.8153 77.4351 87.8307 77.2134C87.8462 76.9917 87.9057 76.7753 88.0057 76.5769L89.7232 73.0966C89.8154 72.8925 89.9477 72.7089 90.1122 72.5568C90.2767 72.4047 90.4701 72.2873 90.6809 72.2114C90.8917 72.1355 91.1156 72.1028 91.3393 72.1151C91.563 72.1274 91.7819 72.1845 91.9831 72.2831C92.185 72.3839 92.365 72.5236 92.5129 72.694C92.6607 72.8644 92.7736 73.0624 92.8449 73.2764C92.9163 73.4905 92.9448 73.7165 92.9287 73.9416C92.9127 74.1667 92.8524 74.3864 92.7515 74.5882L91.0792 78.0684C90.9098 78.3169 90.6797 78.518 90.4107 78.6525C90.1418 78.787 89.8428 78.8504 89.5424 78.8368Z" fill="#0063FF"/>
<path d="M96.3221 81.9999C96.083 82.0431 95.838 82.0431 95.5989 81.9999L88.7741 78.6553C88.5738 78.559 88.3947 78.4237 88.2474 78.2574C88.1 78.091 87.9872 77.897 87.9157 77.6866C87.8441 77.4762 87.8153 77.2536 87.8307 77.0319C87.8462 76.8102 87.9057 76.5939 88.0057 76.3954C88.2013 75.9914 88.5474 75.68 88.9698 75.5279C89.3922 75.3759 89.8573 75.3952 90.2656 75.5819L97.0905 78.9265C97.2907 79.0228 97.4698 79.1581 97.6172 79.3244C97.7646 79.4908 97.8773 79.6848 97.9488 79.8952C98.0204 80.1056 98.0493 80.3282 98.0338 80.5499C98.0183 80.7716 97.9589 80.9879 97.8588 81.1864C97.7019 81.4499 97.4755 81.6651 97.2045 81.8086C96.9335 81.9521 96.6282 82.0183 96.3221 81.9999Z" fill="#0063FF"/>
<path d="M96.3227 81.9095C95.8751 81.8977 95.4497 81.7116 95.1374 81.3908C94.825 81.0699 94.6502 80.6398 94.6504 80.192V66.6327C94.7163 66.2307 94.9229 65.8652 95.2334 65.6014C95.5438 65.3377 95.9379 65.1929 96.3453 65.1929C96.7527 65.1929 97.1468 65.3377 97.4573 65.6014C97.7677 65.8652 97.9744 66.2307 98.0402 66.6327V80.192C98.0402 80.6475 97.8593 81.0844 97.5372 81.4065C97.2151 81.7286 96.7782 81.9095 96.3227 81.9095Z" fill="#0063FF"/>
<path d="M96.3223 68.3958C96.0087 68.3981 95.701 68.3098 95.4364 68.1414C95.1718 67.973 94.9615 67.7317 94.8308 67.4466L91.3957 60.7573C91.192 60.3498 91.1584 59.878 91.3025 59.4457C91.4466 59.0134 91.7565 58.656 92.1641 58.4523C92.5717 58.2485 93.0435 58.2149 93.4758 58.359C93.9081 58.5031 94.2654 58.8131 94.4692 59.2206L97.859 66.0455C97.9591 66.2439 98.0186 66.4603 98.034 66.682C98.0495 66.9037 98.0206 67.1263 97.9491 67.3367C97.8775 67.5471 97.7648 67.7411 97.6174 67.9074C97.47 68.0737 97.2909 68.209 97.0907 68.3054C96.847 68.4026 96.5819 68.4337 96.3223 68.3958Z" fill="#0063FF"/>
<path d="M92.9334 61.5708H89.5436C89.2978 61.611 89.0462 61.5974 88.8062 61.5307C88.5663 61.4641 88.3437 61.346 88.1539 61.1848C87.9641 61.0236 87.8116 60.823 87.7071 60.597C87.6025 60.3709 87.5483 60.1249 87.5483 59.8758C87.5483 59.6268 87.6025 59.3807 87.7071 59.1547C87.8116 58.9287 87.9641 58.7281 88.1539 58.5669C88.3437 58.4056 88.5663 58.2876 88.8062 58.221C89.0462 58.1543 89.2978 58.1407 89.5436 58.1809H92.9334C93.1791 58.1407 93.4307 58.1543 93.6707 58.221C93.9106 58.2876 94.1332 58.4056 94.323 58.5669C94.5128 58.7281 94.6653 58.9287 94.7699 59.1547C94.8744 59.3807 94.9286 59.6268 94.9286 59.8758C94.9286 60.1249 94.8744 60.3709 94.7699 60.597C94.6653 60.823 94.5128 61.0236 94.323 61.1848C94.1332 61.346 93.9106 61.4641 93.6707 61.5307C93.4307 61.5974 93.1791 61.611 92.9334 61.5708Z" fill="#0063FF"/>
<path d="M89.5431 61.5707C89.0953 61.5708 88.6651 61.3961 88.3443 61.0837C88.0235 60.7713 87.8373 60.346 87.8255 59.8984C87.8036 59.7636 87.8036 59.6263 87.8255 59.4916L89.5431 52.6667C89.6599 52.231 89.9435 51.8588 90.3325 51.6305C90.7215 51.4021 91.1848 51.336 91.6221 51.4464C91.8362 51.4992 92.0376 51.5938 92.2149 51.7248C92.3922 51.8558 92.5419 52.0205 92.6553 52.2095C92.7687 52.3986 92.8436 52.6081 92.8758 52.8262C92.9079 53.0443 92.8966 53.2666 92.8425 53.4803L91.3962 60.3051C91.3088 60.7136 91.0676 61.0729 90.7227 61.3085C90.3777 61.544 89.9553 61.6379 89.5431 61.5707Z" fill="#0063FF"/>
<path d="M91.3969 54.7914C90.9493 54.7796 90.524 54.5934 90.2116 54.2726C89.8992 53.9518 89.7245 53.5216 89.7246 53.0738C89.7402 52.8041 89.8176 52.5415 89.9508 52.3063C90.084 52.0712 90.2695 51.8699 90.493 51.7179L97.2726 48.3281C97.4744 48.2271 97.6941 48.1669 97.9192 48.1508C98.1443 48.1348 98.3703 48.1633 98.5844 48.2346C98.7985 48.306 98.9964 48.4188 99.1668 48.5667C99.3373 48.7146 99.4769 48.8946 99.5777 49.0964C99.7676 49.4992 99.7936 49.9601 99.6503 50.3817C99.5069 50.8033 99.2054 51.1527 98.8094 51.3563L91.9845 54.7914C91.7896 54.8186 91.5918 54.8186 91.3969 54.7914Z" fill="#0063FF"/>
<path d="M98.0395 51.3568C97.5917 51.3569 97.1616 51.1822 96.8407 50.8698C96.5199 50.5574 96.3338 50.1321 96.322 49.6845C96.3002 49.5043 96.3002 49.3222 96.322 49.1421L98.0395 44.0347C98.1072 43.7935 98.2269 43.57 98.3902 43.3799C98.5535 43.1898 98.7563 43.0378 98.9846 42.9344C99.2128 42.8311 99.461 42.7789 99.7115 42.7816C99.9621 42.7843 100.209 42.8418 100.435 42.95C100.643 43.0212 100.834 43.1327 100.999 43.278C101.164 43.4233 101.298 43.5996 101.395 43.7968C101.491 43.9941 101.548 44.2084 101.562 44.4276C101.575 44.6468 101.546 44.8665 101.475 45.0743L99.8022 50.1816C99.6821 50.5464 99.4432 50.8603 99.1236 51.0734C98.8041 51.2864 98.4224 51.3862 98.0395 51.3568Z" fill="#0063FF"/>
<path d="M106.538 58.1809C106.319 58.1815 106.102 58.1378 105.9 58.0523C105.698 57.9669 105.515 57.8415 105.363 57.6838L100.437 52.5764C100.279 52.4191 100.154 52.2324 100.069 52.0269C99.9842 51.8214 99.9404 51.6011 99.9404 51.3787C99.9404 51.1562 99.9842 50.936 100.069 50.7305C100.154 50.525 100.279 50.3382 100.437 50.1809C100.594 50.0236 100.781 49.8989 100.986 49.8138C101.192 49.7286 101.412 49.6848 101.634 49.6848C101.857 49.6848 102.077 49.7286 102.282 49.8138C102.488 49.8989 102.675 50.0236 102.832 50.1809L107.939 55.2883C108.099 55.4441 108.226 55.6303 108.313 55.8361C108.4 56.0418 108.445 56.2628 108.445 56.486C108.445 56.7093 108.4 56.9303 108.313 57.136C108.226 57.3417 108.099 57.528 107.939 57.6838C107.756 57.8637 107.536 58.0014 107.294 58.0873C107.052 58.1732 106.794 58.2051 106.538 58.1809Z" fill="#0063FF"/>
<path d="M101.43 53.0736C101.05 53.0723 100.682 52.9418 100.386 52.7036C100.091 52.4654 99.8847 52.1336 99.8026 51.7629L98.0851 44.9832C97.9883 44.5404 98.0658 44.0773 98.3014 43.6902C98.5371 43.303 98.9129 43.0215 99.3507 42.9041C99.5674 42.8507 99.7927 42.8411 100.013 42.8761C100.234 42.9111 100.445 42.9899 100.635 43.1079C100.824 43.2258 100.988 43.3806 101.117 43.5629C101.246 43.7453 101.337 43.9516 101.385 44.1696L103.102 50.9493C103.156 51.1689 103.166 51.397 103.132 51.6205C103.097 51.844 103.019 52.0585 102.901 52.2517C102.784 52.4449 102.629 52.6129 102.446 52.7462C102.264 52.8795 102.056 52.9754 101.837 53.0284L101.43 53.0736Z" fill="#0063FF"/>
<path d="M58.899 61.571C58.5067 61.5779 58.1239 61.4503 57.8142 61.2094C56.9555 60.4862 36.7521 43.4467 36.7521 24.1473C36.6169 21.1577 37.0891 18.1718 38.1399 15.3698C39.1908 12.5678 40.7987 10.0079 42.8664 7.84452C44.9342 5.68118 47.4189 3.95935 50.1706 2.78298C52.9223 1.60662 55.8838 1.00012 58.8764 1.00012C61.869 1.00012 64.8305 1.60662 67.5822 2.78298C70.3339 3.95935 72.8186 5.68118 74.8863 7.84452C76.9541 10.0079 78.5619 12.5678 79.6128 15.3698C80.6637 18.1718 81.1358 21.1577 81.0007 24.1473C81.0007 43.4467 60.8425 60.3054 59.9837 61.2094C59.6693 61.4413 59.2896 61.5678 58.899 61.571ZM58.899 5.39019C53.9316 5.41396 49.1745 7.39777 45.662 10.9103C42.1495 14.4228 40.1657 19.1799 40.1419 24.1473C40.1419 39.4241 54.7408 53.797 58.899 57.5936C63.0572 53.797 77.6108 39.5145 77.6108 24.1473C77.599 19.184 75.6252 14.4268 72.1199 10.9131C68.6146 7.39931 63.8622 5.41404 58.899 5.39019Z" fill="#0063FF"/>
<path d="M58.8987 36.0347C56.5349 36.0437 54.2217 35.3503 52.2526 34.0426C50.2834 32.735 48.747 30.8719 47.8383 28.6897C46.9296 26.5075 46.6895 24.1046 47.1485 21.7858C47.6074 19.467 48.7448 17.3367 50.4163 15.6653C52.0877 13.9938 54.218 12.8565 56.5368 12.3975C58.8556 11.9385 61.2585 12.1786 63.4407 13.0874C65.6228 13.9961 67.4859 15.5324 68.7936 17.5016C70.1013 19.4708 70.7946 21.7839 70.7857 24.1477C70.7738 27.2967 69.5176 30.3133 67.2909 32.54C65.0643 34.7666 62.0477 36.0228 58.8987 36.0347ZM58.8987 15.6054C57.2073 15.5964 55.5513 16.0898 54.1406 17.023C52.7298 17.9562 51.6279 19.2872 50.9744 20.8473C50.3209 22.4074 50.1453 24.1264 50.4698 25.7864C50.7943 27.4464 51.6043 28.9727 52.7971 30.1719C53.99 31.3711 55.512 32.1892 57.1703 32.5225C58.8286 32.8558 60.5485 32.6893 62.112 32.0441C63.6755 31.3989 65.0124 30.304 65.953 28.8983C66.8937 27.4925 67.3958 25.8392 67.3959 24.1477C67.4018 23.0259 67.1868 21.9139 66.763 20.8752C66.3391 19.8366 65.7149 18.8915 64.9259 18.0941C64.1368 17.2967 63.1984 16.6624 62.1643 16.2277C61.1302 15.7929 60.0205 15.5661 58.8987 15.5602V15.6054Z" fill="#0063FF"/>
</svg>
