<svg width="82" height="82" viewBox="0 0 82 82" fill="none" xmlns="http://www.w3.org/2000/svg">
<path d="M39.7313 26.8096C39.7313 24.254 38.9734 21.7557 37.5536 19.6308C36.1338 17.5058 34.1157 15.8497 31.7546 14.8717C29.3935 13.8937 26.7954 13.6378 24.2889 14.1364C21.7823 14.6349 19.4799 15.8656 17.6728 17.6727C15.8657 19.4798 14.6351 21.7822 14.1365 24.2887C13.6379 26.7953 13.8938 29.3934 14.8718 31.7545C15.8498 34.1156 17.506 36.1336 19.6309 37.5535C21.7558 38.9733 24.2541 39.7311 26.8097 39.7311C30.2367 39.7311 33.5234 38.3698 35.9466 35.9465C38.3699 33.5233 39.7313 30.2366 39.7313 26.8096ZM26.8097 37.1268C24.7692 37.1268 22.7745 36.5217 21.0778 35.388C19.3811 34.2544 18.0588 32.643 17.2779 30.7578C16.497 28.8726 16.2927 26.7982 16.6908 24.7968C17.0889 22.7955 18.0715 20.9571 19.5144 19.5142C20.9573 18.0714 22.7956 17.0887 24.7969 16.6906C26.7983 16.2926 28.8727 16.4969 30.7579 17.2778C32.6432 18.0586 34.2545 19.381 35.3882 21.0777C36.5218 22.7743 37.1269 24.7691 37.1269 26.8096C37.1269 29.5459 36.0399 32.1701 34.1051 34.105C32.1702 36.0398 29.546 37.1268 26.8097 37.1268Z" fill="#0063FF"/>
<path d="M26.8096 22.9364C26.0436 22.9364 25.2948 23.1636 24.6579 23.5891C24.0209 24.0147 23.5245 24.6196 23.2313 25.3273C22.9382 26.0351 22.8615 26.8138 23.0109 27.5651C23.1604 28.3164 23.5293 29.0066 24.0709 29.5482C24.6126 30.0899 25.3027 30.4588 26.054 30.6082C26.8053 30.7577 27.5841 30.681 28.2918 30.3878C28.9995 30.0947 29.6044 29.5982 30.03 28.9613C30.4556 28.3244 30.6828 27.5756 30.6828 26.8095C30.6828 25.7823 30.2747 24.7972 29.5484 24.0708C28.822 23.3445 27.8369 22.9364 26.8096 22.9364ZM26.8096 28.1117C26.5521 28.1117 26.3003 28.0353 26.0862 27.8922C25.8721 27.7492 25.7052 27.5458 25.6066 27.3078C25.508 27.0699 25.4823 26.8081 25.5325 26.5555C25.5827 26.3029 25.7068 26.0709 25.8889 25.8887C26.071 25.7066 26.303 25.5826 26.5556 25.5324C26.8082 25.4821 27.07 25.5079 27.308 25.6065C27.5459 25.705 27.7493 25.8719 27.8924 26.0861C28.0354 26.3002 28.1118 26.552 28.1118 26.8095C28.1034 27.1522 27.9634 27.4785 27.721 27.7209C27.4787 27.9633 27.1523 28.1032 26.8096 28.1117Z" fill="#0063FF"/>
<path d="M64.2384 47.4441C60.0114 47.4331 55.9375 49.0261 52.8391 51.9014C49.7406 54.7768 47.8483 58.7205 47.5439 62.9366H31.8177C31.5827 62.0464 31.1158 61.2344 30.4648 60.5834C29.8137 59.9323 29.0017 59.4655 28.1115 59.2304V52.5526H29.3803C29.7037 52.5543 30.0162 52.4356 30.2569 52.2196C30.4976 52.0036 30.6493 51.7057 30.6825 51.384L31.4171 44.4057C32.9841 43.9973 34.489 43.3796 35.8912 42.5693L41.5005 47.1102C41.7424 47.3171 42.0503 47.4308 42.3686 47.4308C42.687 47.4308 42.9948 47.3171 43.2368 47.1102L46.8762 43.4708C47.0831 43.2289 47.1968 42.921 47.1968 42.6027C47.1968 42.2844 47.0831 41.9765 46.8762 41.7346L42.3353 36.1252C43.2467 34.6629 43.9438 33.0775 44.4054 31.4174L51.584 30.6828C51.9057 30.6497 52.2036 30.498 52.4196 30.2573C52.6356 30.0166 52.7543 29.7041 52.7526 29.3807V28.1119H59.4304C59.6655 29.0021 60.1323 29.8141 60.7834 30.4651C61.4344 31.1161 62.2464 31.583 63.1366 31.8181V47.4441H65.7409V31.8181C66.6234 31.5887 67.4296 31.1304 68.078 30.4893C68.7264 29.8483 69.1939 29.0473 69.4332 28.1675C69.6725 27.2877 69.6752 26.3603 69.4408 25.4791C69.2065 24.5979 68.7436 23.7943 68.0988 23.1496C67.4541 22.5049 66.6505 22.0419 65.7694 21.8076C64.8882 21.5733 63.9608 21.5759 63.081 21.8153C62.2012 22.0546 61.4002 22.5221 60.7592 23.1705C60.1181 23.8188 59.6597 24.6251 59.4304 25.5075H52.7526V24.3723C52.7543 24.0489 52.6356 23.7364 52.4196 23.4957C52.2036 23.255 51.9057 23.1033 51.584 23.0701L44.4054 22.202C43.9577 20.6166 43.2949 19.1 42.4354 17.6945L46.9763 12.0852C47.1832 11.8432 47.2969 11.5354 47.2969 11.217C47.2969 10.8987 47.1832 10.5908 46.9763 10.3489L43.2368 6.74292C42.9948 6.53601 42.687 6.4223 42.3686 6.4223C42.0503 6.4223 41.7424 6.53601 41.5005 6.74292L35.8912 11.1837C34.489 10.3734 32.9841 9.75569 31.4171 9.34726L30.6825 2.16863C30.6493 1.84692 30.4976 1.54906 30.2569 1.33304C30.0162 1.11702 29.7037 0.998313 29.3803 1.00002H24.372C24.0486 0.998313 23.7361 1.11702 23.4954 1.33304C23.2547 1.54906 23.103 1.84692 23.0698 2.16863L22.2017 9.34726C20.6231 9.75285 19.1068 10.3706 17.6942 11.1837L12.1182 6.64276C11.8763 6.43584 11.5685 6.32213 11.2501 6.32213C10.9318 6.32213 10.6239 6.43584 10.382 6.64276L6.7426 10.3823C6.53569 10.6242 6.42198 10.9321 6.42198 11.2504C6.42198 11.5688 6.53569 11.8766 6.7426 12.1185L11.1833 17.6945C10.3703 19.1071 9.75253 20.6234 9.34694 22.202L2.16831 22.9366C1.99697 22.9532 1.83062 23.0037 1.67891 23.0851C1.5272 23.1665 1.39312 23.2771 1.28444 23.4106C1.17577 23.5441 1.09464 23.6979 1.04577 23.8629C0.996892 24.028 0.981234 24.2011 0.9997 24.3723V29.3807C0.997995 29.7041 1.11671 30.0166 1.33272 30.2573C1.54874 30.498 1.8466 30.6497 2.16831 30.6828L9.34694 31.4174C9.75537 32.9845 10.3731 34.4894 11.1833 35.8915L6.64244 41.5009C6.43552 41.7428 6.32182 42.0506 6.32182 42.369C6.32182 42.6873 6.43552 42.9952 6.64244 43.2371L10.2818 46.8765C10.5237 47.0834 10.8316 47.1971 11.1499 47.1971C11.4683 47.1971 11.7761 47.0834 12.0181 46.8765L17.6942 42.4357C19.0996 43.2952 20.6163 43.9581 22.2017 44.4057L22.9363 51.5843C22.9694 51.906 23.1211 52.2039 23.3618 52.4199C23.6025 52.6359 23.915 52.7547 24.2384 52.7529H25.5072V59.4307C24.6247 59.66 23.8185 60.1184 23.1701 60.7595C22.5218 61.4005 22.0543 62.2015 21.8149 63.0813C21.5756 63.9611 21.573 64.8885 21.8073 65.7697C22.0416 66.6508 22.5046 67.4545 23.1493 68.0992C23.794 68.7439 24.5976 69.2068 25.4788 69.4412C26.3599 69.6755 27.2874 69.6729 28.1672 69.4335C29.047 69.1942 29.8479 68.7267 30.489 68.0783C31.13 67.43 31.5884 66.6237 31.8177 65.7413H47.5105C47.7827 68.9694 48.9882 72.0486 50.98 74.6035C52.9719 77.1583 55.6641 79.0785 58.7283 80.1298C61.7926 81.1811 65.0965 81.3181 68.2373 80.5242C71.3781 79.7303 74.2201 78.0397 76.4167 75.6586C78.6133 73.2775 80.0696 70.3087 80.6082 67.1142C81.1468 63.9197 80.7443 60.6375 79.4497 57.6678C78.1552 54.6981 76.0246 52.1692 73.3177 50.3894C70.6108 48.6096 67.4446 47.6559 64.205 47.6444L64.2384 47.4441ZM64.2384 24.2388C64.7469 24.2388 65.244 24.3895 65.6668 24.672C66.0896 24.9545 66.4191 25.3561 66.6137 25.8258C66.8083 26.2956 66.8592 26.8126 66.76 27.3113C66.6608 27.81 66.4159 28.2681 66.0564 28.6276C65.6968 28.9872 65.2387 29.2321 64.74 29.3313C64.2413 29.4305 63.7243 29.3795 63.2546 29.185C62.7848 28.9904 62.3833 28.6608 62.1008 28.238C61.8183 27.8153 61.6675 27.3182 61.6675 26.8097C61.6935 26.1484 61.9769 25.5234 62.4572 25.0681C62.9375 24.6128 63.5767 24.3631 64.2384 24.3723V24.2388ZM25.3737 50.0484L24.6725 43.1035C24.6478 42.8272 24.5332 42.5665 24.3463 42.3615C24.1594 42.1564 23.9104 42.0183 23.6374 41.9683C21.7437 41.5783 19.9418 40.8303 18.3286 39.7646C18.1088 39.6094 17.8464 39.5261 17.5773 39.5261C17.3083 39.5261 17.0458 39.6094 16.8261 39.7646L11.3837 44.4057L9.38033 42.4024L13.7877 36.96C13.9429 36.7402 14.0262 36.4778 14.0262 36.2087C14.0262 35.9397 13.9429 35.6772 13.7877 35.4575C12.722 33.8442 11.974 32.0423 11.584 30.1486C11.534 29.8757 11.3959 29.6267 11.1909 29.4397C10.9858 29.2528 10.7252 29.1382 10.4488 29.1135L3.57065 28.2454V25.374L10.5156 24.6728C10.7919 24.6481 11.0526 24.5336 11.2576 24.3466C11.4627 24.1597 11.6008 23.9107 11.6508 23.6377C12.0408 21.744 12.7888 19.9422 13.8545 18.3289C14.0097 18.1091 14.093 17.8467 14.093 17.5776C14.093 17.3086 14.0097 17.0462 13.8545 16.8264L9.38033 11.384L11.3837 9.38065L16.8261 13.788C17.0458 13.9432 17.3083 14.0266 17.5773 14.0266C17.8464 14.0266 18.1088 13.9432 18.3286 13.788C19.9418 12.7223 21.7437 11.9744 23.6374 11.5843C23.9104 11.5343 24.1594 11.3962 24.3463 11.1912C24.5332 10.9861 24.6478 10.7255 24.6725 10.4491L25.3737 3.57097H28.2451L28.9463 10.5159C28.9709 10.7922 29.0855 11.0529 29.2725 11.258C29.4594 11.463 29.7084 11.6011 29.9813 11.6511C31.8751 12.0411 33.6769 12.7891 35.2902 13.8548C35.5099 14.01 35.7724 14.0933 36.0414 14.0933C36.3105 14.0933 36.5729 14.01 36.7927 13.8548L42.2351 9.44743L44.2384 11.4508L39.8311 16.8264C39.6759 17.0462 39.5925 17.3086 39.5925 17.5776C39.5925 17.8467 39.6759 18.1091 39.8311 18.3289C40.8968 19.9422 41.6447 21.744 42.0348 23.6377C42.0848 23.9107 42.2229 24.1597 42.4279 24.3466C42.6329 24.5336 42.8936 24.6481 43.17 24.6728L50.1149 25.374V28.2454L43.17 28.9466C42.8936 28.9713 42.6329 29.0858 42.4279 29.2728C42.2229 29.4597 42.0848 29.7087 42.0348 29.9817C41.6447 31.8754 40.8968 33.6772 39.8311 35.2905C39.6759 35.5103 39.5925 35.7727 39.5925 36.0418C39.5925 36.3108 39.6759 36.5733 39.8311 36.793L44.4054 42.2354L42.402 44.2388L36.9596 39.8314C36.7399 39.6762 36.4774 39.5928 36.2084 39.5928C35.9393 39.5928 35.6769 39.6762 35.4571 39.8314C33.8439 40.8971 32.042 41.645 30.1483 42.0351C29.8754 42.0851 29.6264 42.2232 29.4394 42.4282C29.2525 42.6333 29.1379 42.8939 29.1132 43.1703L28.4121 50.1152L25.3737 50.0484ZM26.8094 66.7429C26.3009 66.7429 25.8038 66.5921 25.381 66.3096C24.9582 66.0271 24.6287 65.6256 24.4341 65.1558C24.2395 64.6861 24.1886 64.1691 24.2878 63.6704C24.387 63.1717 24.6319 62.7136 24.9914 62.354C25.351 61.9945 25.8091 61.7496 26.3078 61.6504C26.8065 61.5512 27.3235 61.6021 27.7932 61.7967C28.263 61.9913 28.6645 62.3208 28.947 62.7436C29.2295 63.1664 29.3803 63.6635 29.3803 64.172C29.394 64.5164 29.3373 64.8599 29.2138 65.1817C29.0903 65.5035 28.9025 65.7967 28.6619 66.0436C28.4214 66.2904 28.133 66.4856 27.8145 66.6173C27.496 66.7491 27.154 66.8145 26.8094 66.8097V66.7429ZM64.2384 78.3623C61.4319 78.3623 58.6883 77.5301 56.3547 75.9708C54.0211 74.4115 52.2023 72.1953 51.1283 69.6024C50.0543 67.0094 49.7732 64.1562 50.3208 61.4036C50.8683 58.6509 52.2198 56.1225 54.2044 54.1379C56.1889 52.1534 58.7174 50.8019 61.47 50.2543C64.2227 49.7068 67.0759 49.9878 69.6688 51.0618C72.2618 52.1359 74.478 53.9547 76.0372 56.2883C77.5965 58.6218 78.4287 61.3654 78.4287 64.172C78.4375 66.0411 78.077 67.8935 77.3678 69.6229C76.6586 71.3522 75.6148 72.9245 74.2962 74.2492C72.9776 75.574 71.4103 76.6252 69.6843 77.3426C67.9583 78.0599 66.1076 78.4291 64.2384 78.4291V78.3623Z" fill="#0063FF"/>
<path d="M64.2385 59.0636C63.2135 59.057 62.2096 59.3549 61.3542 59.9195C60.4987 60.4841 59.8302 61.2901 59.4334 62.2351C59.0366 63.1802 58.9293 64.2218 59.1252 65.2279C59.3211 66.234 59.8113 67.1593 60.5338 67.8864C61.2562 68.6135 62.1783 69.1097 63.1831 69.3121C64.1879 69.5146 65.2302 69.414 66.1778 69.0233C67.1254 68.6326 67.9356 67.9693 68.5058 67.1176C69.076 66.2658 69.3803 65.2639 69.3804 64.2389C69.3848 63.5608 69.255 62.8886 68.9986 62.2609C68.7422 61.6332 68.3641 61.0624 67.8862 60.5814C67.4083 60.1004 66.84 59.7187 66.2139 59.4582C65.5879 59.1977 64.9165 59.0636 64.2385 59.0636ZM64.2385 66.8098C63.73 66.8098 63.2329 66.659 62.8101 66.3765C62.3873 66.094 62.0578 65.6925 61.8632 65.2227C61.6686 64.753 61.6177 64.236 61.7169 63.7373C61.8161 63.2386 62.061 62.7805 62.4205 62.4209C62.7801 62.0614 63.2382 61.8165 63.7369 61.7173C64.2356 61.6181 64.7525 61.669 65.2223 61.8636C65.6921 62.0582 66.0936 62.3877 66.3761 62.8105C66.6586 63.2333 66.8094 63.7304 66.8094 64.2389C66.8139 64.5777 66.7505 64.9141 66.6229 65.228C66.4952 65.542 66.306 65.8272 66.0664 66.0668C65.8268 66.3065 65.5416 66.4957 65.2276 66.6233C64.9137 66.7509 64.5773 66.8143 64.2385 66.8098Z" fill="#0063FF"/>
</svg>
